<?xml version="1.0" standalone="no"?>
<!DOCTYPE svg PUBLIC "-//W3C//DTD SVG 20010904//EN"
 "http://www.w3.org/TR/2001/REC-SVG-20010904/DTD/svg10.dtd">
<svg version="1.0" xmlns="http://www.w3.org/2000/svg"
 width="1922.000000pt" height="2048.000000pt" viewBox="0 0 1922.000000 2048.000000"
 preserveAspectRatio="xMidYMid meet">

<g transform="translate(0.000000,2048.000000) scale(0.100000,-0.100000)"
fill="#000000" stroke="none">
<path d="M8605 17894 c-16 -7 -39 -13 -50 -14 -18 0 -83 -18 -205 -55 -25 -7
-79 -21 -120 -30 -72 -15 -93 -23 -189 -68 -25 -11 -76 -24 -115 -27 -39 -4
-91 -14 -115 -24 -24 -9 -60 -16 -80 -16 -20 0 -41 -4 -46 -9 -11 -9 -131 -41
-156 -41 -13 0 -42 -16 -148 -81 -12 -8 -38 -27 -55 -44 -146 -135 -210 -190
-228 -197 -8 -3 -44 -29 -82 -58 -37 -28 -83 -58 -101 -66 -19 -8 -42 -26 -52
-41 -18 -28 -140 -130 -264 -223 -40 -30 -88 -71 -107 -90 -18 -19 -65 -51
-104 -70 -67 -32 -73 -39 -92 -86 -12 -28 -33 -69 -48 -91 -16 -21 -28 -42
-28 -46 0 -3 -23 -46 -51 -94 -28 -48 -54 -95 -59 -103 -4 -8 -17 -42 -28 -75
-31 -94 -47 -133 -63 -152 -19 -23 -36 -60 -43 -95 -3 -14 -17 -40 -30 -56
-14 -16 -32 -49 -41 -73 -36 -97 -42 -110 -53 -121 -7 -7 -12 -24 -12 -39 0
-15 -7 -43 -15 -62 -8 -20 -15 -50 -15 -67 0 -17 -9 -48 -20 -70 -11 -22 -20
-53 -20 -69 0 -29 -14 -73 -45 -146 -28 -65 -47 -172 -45 -248 1 -43 -3 -84
-9 -90 -5 -7 -12 -35 -14 -62 -3 -28 -8 -64 -12 -81 -5 -25 -1 -40 20 -74 l27
-43 -22 -46 c-19 -42 -20 -51 -9 -95 10 -41 10 -51 -3 -60 -18 -14 -10 -54 25
-118 32 -59 45 -141 26 -164 -7 -9 -24 -20 -37 -25 -18 -7 -22 -14 -17 -27 4
-9 11 -38 14 -63 4 -25 17 -58 28 -73 16 -19 20 -36 17 -63 -3 -23 1 -42 10
-52 8 -9 24 -45 36 -81 17 -50 21 -78 16 -118 -5 -45 -3 -60 15 -89 12 -19 22
-53 23 -76 1 -35 5 -43 34 -60 21 -13 31 -25 28 -34 -4 -8 -9 -39 -12 -69 -4
-30 -11 -57 -15 -60 -5 -3 -7 -16 -4 -30 3 -13 7 -35 10 -49 3 -15 12 -25 23
-25 19 0 92 -69 92 -86 0 -6 14 -26 30 -44 17 -18 30 -39 30 -46 0 -6 6 -17
14 -23 12 -10 14 -2 13 48 -1 33 3 65 9 71 8 8 11 -29 11 -132 -1 -158 5 -188
34 -188 23 0 25 -18 4 -26 -22 -9 -64 11 -110 51 -71 63 -179 90 -263 66 -35
-11 -43 -17 -87 -75 -37 -50 -43 -120 -22 -237 19 -102 26 -154 33 -245 4 -66
13 -106 36 -166 13 -35 31 -37 22 -3 -4 15 -2 25 5 25 6 0 11 8 12 18 1 11 4
9 9 -8 8 -26 11 -21 15 30 0 8 4 20 7 25 4 6 3 17 -2 24 -5 9 0 22 13 37 19
22 22 23 38 8 13 -12 18 -13 22 -2 13 32 5 -112 -13 -244 -19 -144 -19 -145 0
-197 11 -28 20 -64 20 -81 0 -16 7 -54 15 -85 15 -59 8 -136 -14 -158 -6 -6
-11 -21 -11 -34 0 -17 -6 -23 -22 -23 -19 0 -23 6 -24 30 -2 43 -27 58 -78 49
-130 -23 -159 -29 -203 -45 -77 -27 -257 -17 -403 23 -104 28 -265 86 -290
103 -48 32 -136 45 -300 43 -158 -3 -300 -19 -300 -34 0 -5 -9 -9 -20 -9 -11
0 -20 -6 -20 -12 0 -13 -53 -48 -72 -48 -5 0 -23 -13 -39 -29 l-29 -29 16 -63
c13 -52 14 -69 3 -108 -7 -25 -18 -50 -26 -54 -7 -4 -13 -14 -13 -22 0 -8 -13
-29 -28 -47 -27 -30 -39 -68 -47 -142 -2 -16 -9 -33 -17 -38 -10 -7 -9 -11 7
-23 11 -9 28 -22 38 -30 11 -10 39 -15 78 -15 35 0 73 -7 91 -16 18 -10 45
-14 67 -11 67 8 186 31 191 37 3 3 16 6 30 6 14 0 30 2 35 4 6 2 47 0 92 -4
55 -5 83 -13 87 -22 3 -8 16 -14 30 -14 35 0 56 -10 56 -26 0 -8 6 -14 14 -14
15 0 29 -71 16 -80 -4 -3 -10 -15 -14 -27 -4 -13 -12 -23 -17 -23 -5 0 -9 -5
-9 -11 0 -15 -23 -33 -75 -61 -22 -11 -42 -24 -45 -27 -15 -19 -61 -39 -103
-45 -41 -6 -51 -13 -72 -46 -33 -52 -34 -119 -3 -160 12 -17 30 -30 40 -30 10
0 18 -4 18 -10 0 -6 36 -10 88 -10 104 0 172 -19 218 -60 19 -16 39 -30 44
-30 5 0 35 -21 67 -47 106 -86 146 -105 239 -111 54 -3 79 0 103 13 44 22 180
57 198 51 8 -3 21 -2 31 3 40 21 105 30 222 32 69 0 154 2 190 4 372 18 374
18 505 -10 41 -9 181 -28 203 -28 12 1 22 -3 22 -7 0 -4 8 -10 19 -13 11 -2
26 -24 36 -53 10 -27 26 -60 36 -74 24 -35 54 -89 117 -210 30 -58 67 -121 82
-140 15 -19 34 -48 43 -65 9 -16 35 -51 59 -77 24 -25 65 -74 93 -108 27 -35
55 -68 62 -76 18 -17 16 -27 -3 -20 -12 4 -15 2 -10 -9 4 -12 -6 -15 -59 -15
-35 0 -67 -4 -70 -10 -3 -5 -16 -10 -28 -10 -26 0 -116 -41 -137 -62 -8 -8
-27 -22 -42 -32 -22 -15 -28 -26 -28 -55 0 -35 20 -104 33 -117 4 -4 7 -22 7
-39 0 -18 9 -42 20 -55 11 -13 20 -27 20 -32 0 -10 63 -106 85 -129 8 -9 15
-21 15 -27 0 -7 7 -12 15 -12 8 0 15 -7 15 -15 0 -9 21 -37 46 -63 39 -39 52
-46 87 -48 45 -1 77 18 77 45 0 9 18 27 40 41 22 14 40 28 40 32 0 5 7 8 15 8
9 0 29 13 45 30 26 27 30 28 45 14 27 -27 34 -50 39 -121 2 -43 12 -88 27
-119 12 -27 24 -74 27 -104 l4 -55 -54 -27 c-94 -47 -132 -59 -190 -60 -32 -1
-58 -5 -58 -10 0 -4 -9 -8 -19 -8 -11 0 -26 -9 -33 -19 -8 -11 -26 -25 -40
-31 -14 -7 -32 -24 -39 -39 -8 -14 -31 -41 -51 -60 -36 -32 -38 -36 -38 -95 0
-141 156 -587 316 -903 154 -305 421 -669 589 -803 284 -227 357 -274 683
-439 163 -82 210 -100 422 -161 63 -18 146 -43 183 -56 92 -32 223 -53 392
-63 182 -10 260 -3 590 59 106 20 141 29 180 45 22 10 91 33 155 52 63 19 153
48 200 65 93 34 316 146 367 184 17 13 36 24 41 24 5 0 17 9 27 20 10 11 22
20 27 20 5 0 46 24 91 54 45 29 133 83 196 121 208 122 482 329 666 501 165
155 185 175 414 439 94 108 229 306 365 537 47 80 120 197 198 316 99 152 137
223 143 264 6 42 5 46 -27 70 -47 36 -139 82 -235 119 -65 25 -79 34 -70 44 7
7 15 11 18 9 5 -3 5 36 0 68 -1 3 -25 18 -55 33 -50 24 -64 26 -163 25 -200
-4 -227 -2 -287 19 -33 12 -70 21 -83 21 -13 0 -62 18 -108 40 -62 30 -83 44
-81 57 2 10 13 19 24 21 12 2 22 7 22 11 0 4 15 12 34 19 18 7 49 27 69 44 32
29 81 42 142 39 6 -1 80 -4 165 -7 85 -4 163 -11 172 -16 27 -14 106 31 92 53
-2 4 3 12 11 19 13 11 12 16 -7 44 -12 17 -26 33 -30 34 -4 2 -8 8 -8 14 0 18
-45 47 -73 48 -16 0 -38 5 -49 11 -11 6 -66 13 -122 15 -55 2 -121 6 -146 9
-25 4 -106 8 -180 11 -265 8 -319 14 -339 36 -25 26 -30 111 -20 380 9 229 18
276 59 298 12 6 30 20 41 31 17 17 21 18 35 5 12 -13 19 -13 47 -2 50 21 259
39 270 23 7 -9 10 -9 14 1 6 15 63 16 63 1 0 -15 72 -7 78 9 2 8 -9 12 -37 12
-23 0 -41 5 -41 10 0 6 33 10 80 10 83 0 115 19 38 21 -30 2 -18 5 40 12 59 7
82 14 82 24 0 11 4 11 20 3 14 -8 26 -8 41 1 12 6 35 9 53 6 33 -5 117 12 127
26 8 11 179 -3 179 -15 0 -18 134 4 197 33 34 16 73 30 85 33 36 6 280 -22
292 -34 5 -5 19 -10 30 -10 10 0 42 -11 71 -25 47 -24 117 -39 212 -49 21 -2
74 -9 118 -15 44 -5 121 -13 171 -16 87 -5 183 -30 207 -54 6 -6 17 -11 24
-11 7 0 13 -4 13 -8 0 -4 17 -14 38 -21 45 -17 53 -27 41 -58 -6 -16 -5 -22 1
-18 5 3 21 -5 34 -19 13 -14 33 -26 45 -26 18 0 21 -6 21 -44 0 -30 -8 -55
-25 -80 -14 -20 -25 -41 -25 -46 0 -6 -9 -10 -19 -10 -11 0 -23 -4 -26 -10 -3
-5 -1 -10 5 -10 16 0 42 -28 36 -38 -3 -5 0 -9 7 -9 7 -1 45 -13 84 -27 40
-14 79 -26 88 -26 8 0 15 -4 15 -10 0 -5 18 -10 40 -10 22 0 40 -4 40 -9 0
-11 118 -41 161 -41 18 0 40 -6 48 -14 21 -19 159 -36 295 -37 61 0 153 -4
204 -7 50 -4 93 -3 95 1 1 4 20 1 42 -6 41 -14 84 -22 190 -33 33 -3 89 -10
125 -15 36 -5 115 -16 175 -24 129 -19 129 -19 220 -38 39 -9 106 -21 150 -27
44 -6 105 -17 135 -22 30 -6 64 -12 75 -13 72 -5 163 -19 178 -27 10 -5 37
-10 60 -10 22 0 48 -4 57 -8 8 -5 49 -14 90 -20 41 -7 102 -21 134 -31 33 -10
68 -19 78 -19 10 0 62 -21 115 -46 54 -25 118 -56 143 -67 60 -28 159 -33 248
-13 88 20 249 21 277 3 11 -7 47 -20 80 -27 33 -7 65 -17 71 -21 6 -5 108 -9
227 -9 240 0 252 -1 645 -87 l22 -5 0 1395 0 1396 -127 -4 c-71 -2 -307 -8
-527 -14 -219 -6 -403 -14 -408 -17 -5 -4 -170 -6 -366 -5 -336 1 -475 -6
-582 -30 -25 -6 -88 -17 -140 -24 -52 -8 -112 -17 -134 -20 -21 -3 -60 -10
-85 -16 -25 -6 -77 -14 -116 -19 -99 -12 -249 -46 -285 -65 -17 -9 -37 -14
-43 -12 -14 5 -82 -27 -92 -43 -3 -5 -15 -10 -26 -10 -10 0 -19 -4 -19 -8 0
-5 -19 -15 -42 -22 -24 -7 -47 -15 -53 -17 -83 -28 -346 -53 -385 -37 -8 4
-42 9 -75 11 -70 4 -151 24 -250 60 -120 43 -276 69 -465 78 -199 9 -274 16
-280 24 -3 4 -30 12 -60 18 -30 6 -80 18 -110 26 -30 8 -77 18 -105 22 -27 4
-59 13 -70 19 -14 8 -178 11 -555 11 -531 0 -647 5 -1015 41 -137 14 -162 19
-177 37 -10 11 -18 24 -18 28 0 5 -7 6 -15 3 -22 -9 -19 13 20 133 37 110 50
184 64 353 10 110 32 214 68 320 63 187 65 201 59 364 -3 83 -4 160 -4 171 9
135 -24 400 -57 465 -10 19 -41 57 -70 86 -42 43 -60 54 -98 59 -93 14 -164
-18 -264 -121 -40 -41 -80 -74 -88 -74 -26 0 -18 54 15 95 28 35 34 49 31 68
-1 4 8 25 18 45 13 26 16 43 10 53 -14 23 -11 47 16 104 17 35 28 78 31 127 7
83 7 81 -2 166 -5 51 -3 66 10 81 10 11 21 50 27 97 13 104 12 121 -10 158
-17 27 -19 48 -16 181 1 83 7 166 14 185 7 24 8 51 1 90 -5 30 -15 89 -21 130
-19 124 -36 221 -52 290 -8 36 -14 72 -14 80 0 8 -8 48 -17 89 -9 41 -14 86
-11 102 3 15 1 30 -4 34 -6 3 -11 16 -11 29 0 13 -9 49 -21 82 -11 32 -24 82
-29 110 -4 28 -19 75 -33 105 -14 30 -30 72 -36 94 -6 22 -29 62 -51 89 -22
26 -40 52 -40 56 0 5 -23 37 -51 72 -60 74 -74 100 -83 150 -4 21 -15 42 -26
48 -10 5 -26 31 -35 57 -9 27 -21 56 -26 65 -5 10 -9 22 -9 28 0 11 -135 210
-164 242 -8 9 -22 32 -32 50 -18 37 -44 61 -92 84 -18 9 -47 37 -65 61 -17 25
-49 54 -69 64 -21 11 -38 23 -38 28 0 5 -15 12 -32 16 -71 13 -103 36 -158
109 -41 55 -76 88 -135 127 -79 53 -226 129 -248 129 -7 0 -25 9 -42 21 -72
49 -241 121 -319 136 -16 3 -85 28 -155 55 -69 27 -142 53 -161 57 -19 5 -46
13 -60 19 -28 12 -178 39 -255 47 -47 4 -387 18 -429 16 -11 0 -28 5 -38 10
-10 6 -42 14 -71 19 -29 5 -83 16 -122 25 -94 22 -465 29 -510 9z m65 -2134
c22 -14 10 -18 -55 -20 -125 -3 -145 2 -55 15 47 7 87 13 90 13 3 1 12 -2 20
-8z m-505 -39 c3 -5 1 -12 -5 -16 -5 -3 -10 1 -10 9 0 18 6 21 15 7z m530 -24
c21 -12 25 -16 12 -17 -10 0 -15 -5 -12 -10 4 -6 12 -10 18 -9 20 4 87 -13 87
-21 0 -4 10 -5 23 -3 27 5 62 -27 39 -35 -9 -2 -3 -9 13 -18 35 -18 45 -18 45
1 0 22 21 18 27 -5 3 -11 9 -18 13 -15 20 12 72 -20 94 -59 20 -33 23 -50 19
-91 -5 -49 -6 -50 -59 -74 -52 -22 -54 -25 -51 -57 3 -18 0 -31 -5 -28 -5 3
-22 -8 -37 -25 -25 -27 -37 -31 -81 -32 -39 -1 -50 -5 -46 -15 6 -16 -34 -20
-50 -4 -5 5 -47 12 -93 16 -69 6 -85 10 -89 26 -2 10 -11 18 -18 18 -8 0 -19
11 -24 24 -8 21 -17 24 -85 31 -51 4 -78 11 -82 21 -7 19 -23 18 -74 -6 -24
-11 -60 -20 -79 -20 -20 0 -44 -6 -55 -14 -11 -7 -48 -16 -83 -19 -56 -6 -65
-4 -85 16 -21 21 -67 32 -67 15 0 -14 -28 -8 -34 7 -5 15 -37 15 -113 -1 -13
-2 -23 1 -23 7 0 13 25 39 38 39 21 0 20 30 -1 45 -19 13 -20 17 -7 25 8 5 26
10 40 10 14 0 31 4 39 9 11 7 9 10 -8 16 -24 7 -29 35 -5 35 9 0 18 9 21 20 3
13 14 20 29 20 24 0 27 6 25 45 0 11 2 14 5 8 13 -30 121 -2 172 45 19 17 52
15 52 -3 0 -8 5 -15 10 -15 6 0 10 7 10 15 0 19 16 20 23 1 3 -8 1 -17 -6 -20
-7 -2 -2 -5 10 -5 13 -1 24 7 28 18 3 11 13 22 21 25 8 3 13 2 10 -3 -6 -9 16
-21 40 -21 24 0 16 20 -8 21 -20 1 -18 3 10 15 20 9 32 21 32 34 0 13 5 18 15
14 8 -4 13 -10 10 -14 -3 -5 -1 -11 4 -14 5 -4 12 -2 16 4 3 5 14 10 25 10 10
0 20 7 24 15 8 23 23 18 30 -10 4 -14 11 -23 16 -20 5 3 7 12 3 20 -3 8 -3 21
0 28 7 18 192 6 232 -16z m102 -29 c-3 -8 -6 -5 -6 6 -1 11 2 17 5 13 3 -3 4
-12 1 -19z m56 15 c-7 -2 -19 -2 -25 0 -7 3 -2 5 12 5 14 0 19 -2 13 -5z
m-565 -10 c-10 -2 -26 -2 -35 0 -10 3 -2 5 17 5 19 0 27 -2 18 -5z m625 -50
c-7 -2 -19 -2 -25 0 -7 3 -2 5 12 5 14 0 19 -2 13 -5z m-1223 -174 c0 -5 -7
-9 -15 -9 -15 0 -20 12 -9 23 8 8 24 -1 24 -14z m497 -175 c-3 -3 -12 -4 -19
-1 -8 3 -5 6 6 6 11 1 17 -2 13 -5z m-732 -64 c3 -5 1 -10 -4 -10 -6 0 -11 5
-11 10 0 6 2 10 4 10 3 0 8 -4 11 -10z m1421 -44 c30 -23 13 -26 -26 -6 -27
15 -30 19 -14 20 11 0 29 -6 40 -14z m694 -452 c0 -13 3 -24 8 -25 4 0 19 -3
34 -5 21 -4 26 -1 22 9 -3 9 3 16 15 20 11 3 20 2 19 -2 -1 -3 4 -19 10 -34 8
-19 9 -34 2 -45 -7 -13 -9 -14 -10 -3 0 12 -3 11 -12 -2 -13 -17 -58 -14 -58
4 0 5 -7 9 -15 9 -8 0 -15 7 -15 16 0 17 -21 15 -28 -4 -2 -6 8 -14 22 -18 14
-3 26 -11 26 -16 0 -6 -7 -8 -15 -5 -8 4 -17 2 -20 -3 -4 -6 19 -10 57 -10 35
0 69 -4 76 -8 7 -5 15 -26 19 -46 6 -36 5 -38 -14 -27 -19 9 -21 7 -27 -28 -3
-21 -13 -41 -21 -45 -8 -3 -15 -12 -15 -21 0 -8 -7 -15 -15 -15 -8 0 -15 -4
-15 -9 0 -14 -33 -23 -40 -10 -6 8 -9 8 -15 -1 -6 -9 -10 -9 -17 1 -7 11 -12
9 -25 -8 -8 -13 -24 -23 -34 -23 -11 0 -19 -4 -19 -10 0 -5 -7 -10 -15 -10 -8
0 -15 5 -15 10 0 6 -6 10 -14 10 -10 0 -13 -9 -10 -30 4 -25 2 -30 -15 -30
-12 0 -21 -6 -22 -12 0 -10 -2 -10 -6 0 -7 19 -41 14 -64 -9 -17 -17 -18 -23
-7 -37 9 -11 10 -14 1 -8 -9 4 -13 1 -13 -9 0 -11 -5 -15 -15 -11 -8 3 -15 1
-15 -5 0 -6 -7 -9 -15 -5 -14 5 -19 -5 -16 -31 1 -7 -3 -13 -9 -13 -5 0 -10 8
-11 18 0 10 -3 12 -6 5 -8 -22 -50 -15 -58 10 -7 21 -7 21 -12 2 -3 -11 -14
-30 -26 -42 -20 -22 -20 -23 -1 -24 10 -1 3 -5 -16 -10 -54 -13 -314 -27 -357
-19 -21 4 -28 8 -17 9 26 1 40 30 23 45 -9 8 -10 8 -5 -1 11 -20 -29 -35 -61
-22 -15 7 -39 11 -52 10 -13 0 -30 4 -37 10 -9 8 -11 5 -7 -10 3 -13 15 -21
37 -24 29 -4 29 -4 -6 -5 -22 -1 -38 3 -38 9 0 6 -7 8 -16 5 -20 -8 -206 14
-219 26 -6 6 -5 12 3 17 11 7 10 10 -3 15 -19 7 -63 -19 -45 -27 6 -3 5 -4 -2
-3 -7 2 -12 11 -10 21 5 27 -6 45 -24 38 -10 -4 -14 -14 -11 -29 3 -16 0 -24
-9 -24 -8 0 -14 6 -14 14 0 16 -27 29 -41 20 -5 -3 -7 -10 -4 -15 4 -5 -6 -9
-21 -9 -29 0 -53 24 -54 53 0 19 -15 23 -25 7 -3 -5 -2 -10 4 -10 5 0 9 -9 8
-20 -1 -17 -8 -20 -47 -20 -25 0 -52 5 -60 11 -11 8 -4 9 28 6 24 -3 40 -1 36
4 -3 5 -13 9 -23 9 -10 0 -32 7 -50 16 -33 16 -58 11 -31 -6 8 -6 11 -10 6
-10 -6 0 -20 10 -33 22 l-23 21 0 -21 c0 -14 -6 -22 -17 -22 -16 0 -16 -2 -3
-11 25 -18 -126 -4 -153 14 -13 8 -33 17 -45 19 -16 2 -19 6 -12 18 9 13 11
13 20 0 5 -8 10 -10 10 -4 0 5 -6 18 -13 28 -12 16 -14 16 -26 -11 -8 -15 -15
-23 -18 -17 -2 6 -16 9 -31 7 -26 -3 -26 -3 -4 8 12 7 22 19 22 27 0 11 -3 12
-14 3 -21 -18 -70 -10 -74 12 -2 9 1 17 7 17 6 0 8 -7 4 -16 -4 -12 0 -14 23
-8 16 4 37 11 47 16 18 9 18 10 0 23 -10 7 -14 17 -10 21 4 5 12 2 17 -6 8
-12 10 -11 10 5 0 11 -4 26 -9 34 -7 11 -11 10 -19 -5 -9 -15 -14 -16 -36 -6
-21 9 -26 9 -26 -3 0 -11 -6 -12 -30 -4 -30 11 -41 41 -20 54 6 3 10 1 10 -6
0 -7 8 -5 20 6 25 22 29 65 5 45 -9 -7 -18 -10 -22 -6 -16 16 25 23 65 11 16
-5 22 -3 22 8 0 8 -7 17 -15 21 -8 3 -15 10 -15 16 0 14 37 12 43 -2 9 -24 37
25 31 54 -7 34 12 46 20 13 7 -27 26 -34 26 -9 0 8 4 13 9 10 5 -3 11 8 15 24
3 18 12 30 21 30 9 0 28 8 42 17 26 17 27 17 20 0 -5 -14 0 -17 33 -17 25 0
40 5 40 13 0 7 5 5 10 -5 11 -18 46 -14 54 7 2 7 23 16 45 20 23 4 44 11 47
17 4 5 13 3 22 -5 11 -9 37 -15 69 -15 28 0 57 -3 65 -8 7 -5 19 -9 27 -9 8 0
19 -9 25 -20 16 -29 27 -35 69 -35 20 0 37 -5 37 -10 0 -7 20 -9 58 -5 52 6
59 5 85 -19 30 -27 94 -38 84 -13 -3 9 11 12 54 12 33 0 59 -3 59 -7 0 -5 7
-8 15 -8 8 0 15 -4 15 -9 0 -18 39 -19 45 -1 4 14 14 17 43 15 20 -1 44 -5 53
-9 10 -4 20 -3 23 2 3 6 16 8 28 4 14 -3 19 -1 14 6 -5 8 -1 10 9 5 12 -4 13
-8 5 -13 -17 -10 35 -44 55 -36 12 4 13 11 5 31 -13 33 -13 38 0 30 6 -3 7 1
4 9 -5 13 0 15 27 9 32 -7 85 -8 121 -2 9 1 14 8 11 16 -4 9 5 13 31 13 34 0
36 2 26 20 -6 11 -18 20 -26 20 -8 0 -13 4 -10 9 6 9 76 -10 76 -21 0 -4 12
-3 26 3 15 5 29 7 32 5 2 -3 20 1 40 10 19 8 37 12 40 9 3 -3 0 -5 -6 -5 -7 0
-12 -5 -12 -11 0 -6 7 -9 15 -5 9 3 15 0 15 -9 0 -8 5 -15 10 -15 6 0 10 7 10
16 0 11 6 14 20 9 15 -5 20 -2 20 12 0 15 2 16 10 3 7 -12 12 -8 21 18 12 35
35 41 55 15 12 -17 14 -15 26 14 13 36 28 34 28 -3z m133 -7 c-7 -11 -23 12
-23 32 0 11 4 9 14 -4 8 -11 12 -24 9 -28z m17 -33 c0 -8 -4 -12 -10 -9 -5 3
-10 10 -10 16 0 5 5 9 10 9 6 0 10 -7 10 -16z m-1358 -6 c-9 -9 -15 -9 -24 0
-9 9 -7 12 12 12 19 0 21 -3 12 -12z m-102 -28 c12 -8 11 -10 -7 -10 -13 0
-23 5 -23 10 0 13 11 13 30 0z m65 -20 c3 -5 1 -10 -4 -10 -6 0 -11 5 -11 10
0 6 2 10 4 10 3 0 8 -4 11 -10z m-813 -15 c0 -5 -5 -11 -11 -13 -6 -2 -11 4
-11 13 0 9 5 15 11 13 6 -2 11 -8 11 -13z m958 -5 c0 -5 -4 -10 -9 -10 -6 0
-13 5 -16 10 -3 6 1 10 9 10 9 0 16 -4 16 -10z m-873 -22 c-3 -8 -6 -5 -6 6
-1 11 2 17 5 13 3 -3 4 -12 1 -19z m1208 13 c3 -5 1 -12 -5 -16 -5 -3 -10 1
-10 9 0 18 6 21 15 7z m955 -25 c0 -2 -7 -7 -16 -10 -8 -3 -12 -2 -9 4 6 10
25 14 25 6z m-1050 -16 c0 -5 -2 -10 -4 -10 -3 0 -8 5 -11 10 -3 6 -1 10 4 10
6 0 11 -4 11 -10z m-1190 -20 c0 -5 -6 -10 -14 -10 -8 0 -18 5 -21 10 -3 6 3
10 14 10 12 0 21 -4 21 -10z m2174 -61 c-3 -6 -1 -15 5 -19 8 -4 10 -17 6 -33
-4 -15 -11 -24 -16 -21 -5 3 -7 9 -4 14 3 5 1 11 -5 15 -16 10 -12 55 6 55 8
0 12 -5 8 -11z m-77 -111 c-3 -8 -6 -5 -6 6 -1 11 2 17 5 13 3 -3 4 -12 1 -19z
m38 12 c3 -5 1 -10 -4 -10 -6 0 -11 5 -11 10 0 6 2 10 4 10 3 0 8 -4 11 -10z
m-95 -34 c0 -8 -4 -18 -10 -21 -5 -3 -10 3 -10 14 0 12 5 21 10 21 6 0 10 -6
10 -14z m-50 -22 c0 -8 -4 -14 -10 -14 -5 0 -10 9 -10 21 0 11 5 17 10 14 6
-3 10 -13 10 -21z m-50 -3 c0 -5 -7 -11 -15 -15 -9 -3 -15 0 -15 9 0 8 7 15
15 15 8 0 15 -4 15 -9z m-1975 -11 c-3 -5 -11 -10 -16 -10 -6 0 -7 5 -4 10 3
6 11 10 16 10 6 0 7 -4 4 -10z m4479 -85 c1 -8 11 -21 22 -29 19 -14 19 -14
-1 -13 -23 2 -23 -8 -3 -148 16 -105 21 -115 55 -115 24 0 25 2 19 38 -20 111
-19 112 3 112 24 0 25 -4 11 -31 -8 -14 -7 -19 1 -19 6 0 8 -7 5 -15 -3 -9 1
-18 9 -21 21 -8 19 -24 -2 -24 -16 -1 -16 -2 2 -15 42 -29 55 -49 55 -82 0
-18 9 -56 21 -85 20 -51 53 -227 45 -236 -3 -2 -12 12 -20 32 -9 23 -22 36
-33 36 -13 0 -33 29 -71 103 -53 104 -129 230 -155 257 -11 11 -16 54 -19 176
l-4 161 29 -33 c16 -19 30 -40 31 -49z m-4368 7 c-3 -3 0 -12 7 -20 10 -13 9
-15 -6 -9 -10 4 -30 7 -43 7 -21 0 -23 2 -12 14 7 7 19 11 25 9 7 -3 13 0 13
7 0 6 5 8 11 5 6 -4 8 -10 5 -13z m-71 -2 c-3 -5 -12 -7 -20 -3 -21 7 -19 13
6 13 11 0 18 -4 14 -10z m-105 -10 c0 -5 -19 -10 -42 -9 -37 1 -39 2 -18 9 36
12 60 12 60 0z m4587 -75 c9 -24 -1 -27 -15 -5 -8 13 -8 20 -2 20 6 0 13 -7
17 -15z m-2822 -5 c-16 -4 -41 -8 -55 -8 -23 -1 -23 0 -5 8 11 5 36 8 55 8
l35 0 -30 -8z m-1508 -23 c3 -4 -25 -7 -63 -8 -79 -1 -120 -6 -144 -19 -9 -5
-35 -6 -58 -3 -24 3 -83 0 -133 -7 -50 -6 -93 -10 -95 -7 -3 3 28 10 68 16 40
6 100 17 133 24 61 13 280 16 292 4z m4008 4 c-6 -5 -36 -11 -67 -15 -48 -5
-58 -4 -58 9 0 12 14 15 67 15 39 0 63 -4 58 -9z m-4049 -92 c0 -21 -4 -40 -8
-40 -5 -1 -13 -2 -20 -3 -6 0 -13 -7 -15 -13 -3 -9 6 -13 26 -13 31 0 50 -15
29 -23 -7 -3 -4 -6 7 -7 19 -1 19 -1 -2 -19 -13 -11 -23 -22 -23 -26 0 -3 10
-3 23 0 17 5 19 4 7 -4 -13 -10 -13 -12 0 -21 9 -6 11 -10 3 -10 -8 0 -11 -16
-9 -50 2 -32 -2 -54 -10 -61 -9 -7 -11 -26 -7 -58 3 -30 1 -51 -5 -55 -6 -4
-9 -13 -6 -20 3 -7 -2 -18 -10 -25 -10 -9 -12 -19 -7 -34 5 -12 6 -28 4 -34
-3 -7 1 -13 9 -14 7 0 4 -4 -7 -8 -24 -9 -278 -6 -294 3 -6 4 -11 20 -11 36 0
43 -10 60 -34 60 -15 0 -17 3 -8 9 11 7 11 9 -2 14 -9 4 -16 16 -16 27 0 13
-7 20 -20 20 -10 0 -24 9 -30 20 -6 11 -20 20 -31 20 -32 0 -33 28 -5 81 17
31 25 57 21 69 -5 15 -2 20 11 20 21 0 54 28 54 47 0 7 6 12 13 11 6 -2 11 5
9 14 -2 12 2 16 13 12 11 -5 15 0 15 19 0 21 4 24 21 20 18 -5 20 -2 17 28 -2
26 1 34 15 37 10 2 17 0 16 -5 -1 -4 -1 -15 1 -23 1 -11 4 -10 9 4 11 27 79
42 177 38 l81 -3 -1 -40z m1320 33 c37 -34 43 -55 27 -102 -10 -29 -14 -72
-11 -132 2 -66 0 -89 -10 -93 -21 -8 -22 -7 -22 36 0 56 -21 124 -32 107 -5
-8 -6 -2 -2 14 4 20 2 29 -9 34 -21 8 -31 76 -17 119 13 40 44 47 76 17z
m-1941 -22 c3 -5 -1 -10 -9 -10 -9 0 -16 5 -16 10 0 6 4 10 9 10 6 0 13 -4 16
-10z m261 -72 c-16 -9 -36 -3 -36 11 0 5 12 6 26 3 22 -4 24 -6 10 -14z m1489
-94 c2 -28 6 -61 10 -74 5 -15 4 -20 -4 -16 -6 4 -11 17 -11 29 0 12 -9 40
-19 62 -11 26 -16 54 -13 79 l5 39 15 -34 c8 -19 16 -57 17 -85z m-1558 72
c-4 -9 -14 -16 -24 -15 -11 0 -13 3 -5 6 6 2 12 14 12 26 0 16 3 18 11 10 7
-7 9 -19 6 -27z m2403 -20 c0 -3 -4 -8 -10 -11 -5 -3 -10 -1 -10 4 0 6 5 11
10 11 6 0 10 -2 10 -4z m-99 -56 c2 1 16 -3 31 -9 33 -12 50 -36 19 -26 -23 7
-30 -9 -8 -18 14 -5 12 -67 -2 -67 -3 0 -7 -21 -9 -47 -2 -26 -8 -51 -15 -55
-9 -6 -9 -10 1 -17 16 -10 18 -21 4 -30 -5 -3 -16 -20 -25 -37 -12 -23 -13
-34 -5 -42 7 -7 9 -14 6 -18 -19 -18 -57 115 -59 203 -2 83 34 201 52 172 3
-6 8 -10 10 -9z m-2548 -37 c-3 -30 -2 -31 22 -20 14 7 25 15 25 20 0 11 35 8
48 -5 18 -18 14 -31 -8 -25 -11 3 -18 2 -16 -2 3 -4 -9 -13 -25 -20 -17 -7
-35 -24 -41 -37 -13 -27 -26 -31 -34 -10 -12 31 -34 4 -34 -41 0 -27 -4 -42
-10 -38 -5 3 -10 17 -10 31 0 22 -2 23 -20 14 -11 -6 -19 -19 -18 -28 2 -12
-3 -16 -19 -14 -14 2 -23 -2 -23 -10 0 -7 -9 -2 -20 12 -13 17 -16 28 -8 37
11 14 2 53 -13 53 -5 0 -12 -7 -15 -15 -7 -17 -34 -21 -34 -5 0 16 77 62 97
58 10 -2 19 -14 21 -28 4 -25 22 -54 22 -34 0 6 15 16 34 24 32 12 33 15 29
51 -6 43 10 72 36 67 11 -3 15 -13 14 -35z m1814 -85 c-3 -8 -6 -5 -6 6 -1 11
2 17 5 13 3 -3 4 -12 1 -19z m-2277 -18 c0 -6 -11 -15 -24 -20 -13 -5 -25 -13
-27 -19 -3 -7 -32 -9 -87 -4 -50 4 -79 10 -74 15 27 27 212 51 212 28z m2480
-20 c-19 -13 -30 -13 -30 0 0 6 10 10 23 10 18 0 19 -2 7 -10z m-323 -32 c-3
-7 -5 -2 -5 12 0 14 2 19 5 13 2 -7 2 -19 0 -25z m11 -150 c-6 -132 -33 -287
-76 -420 -23 -74 -35 -86 -16 -17 33 125 64 303 53 309 -13 9 -8 77 6 71 12
-5 24 56 24 132 1 31 4 57 7 57 4 0 4 -60 2 -132z m395 5 c-7 -2 -19 -2 -25 0
-7 3 -2 5 12 5 14 0 19 -2 13 -5z m-2966 -200 c-2 -16 -4 -5 -4 22 0 28 2 40
4 28 2 -13 2 -35 0 -50z m-20 -145 c-3 -8 -6 -5 -6 6 -1 11 2 17 5 13 3 -3 4
-12 1 -19z m5432 -249 c-8 -5 -17 -9 -21 -9 -12 0 -9 25 4 38 9 9 14 9 21 -4
6 -11 5 -19 -4 -25z m-2962 5 c-3 -3 -12 -4 -19 -1 -8 3 -5 6 6 6 11 1 17 -2
13 -5z m-218 -321 c-73 -80 -225 -201 -264 -209 -16 -4 -68 -19 -115 -35 -47
-16 -118 -36 -159 -44 -40 -9 -92 -24 -115 -34 -33 -15 -52 -17 -96 -11 -30 5
-84 10 -120 11 l-65 2 60 7 c33 4 94 14 135 22 41 8 91 13 111 11 72 -9 297
61 359 112 8 7 36 20 63 30 32 12 46 23 45 34 -2 11 4 16 22 14 19 -1 44 15
90 57 70 64 88 76 49 33z m-2296 -23 c-4 -26 -2 -40 6 -40 6 0 11 8 12 18 0
13 2 14 6 2 3 -8 10 -18 15 -21 14 -9 -13 -48 -29 -42 -7 3 -13 12 -13 20 0 9
-6 12 -19 8 -19 -6 -25 2 -41 57 -10 33 -5 38 36 38 32 0 32 0 27 -40z m57
-270 c0 -39 -9 -60 -26 -60 -8 0 -14 -5 -14 -10 0 -22 -55 -5 -67 20 -10 22
-12 23 -18 8 -10 -24 -25 -23 -25 2 0 11 6 20 14 20 11 0 13 9 9 34 -3 19 -2
60 1 90 l7 55 60 -66 c43 -47 59 -73 59 -93z m10 129 c0 -5 -4 -9 -10 -9 -5 0
-10 7 -10 16 0 8 5 12 10 9 6 -3 10 -10 10 -16z m818 -52 c9 -9 31 -23 47 -32
27 -15 27 -16 5 -11 -14 3 -42 9 -62 12 -23 4 -43 15 -52 29 -14 22 -14 23 15
20 16 -1 37 -9 47 -18z m2101 -70 c13 -16 5 -27 -21 -27 -20 0 -21 1 -12 24 7
20 18 20 33 3z m33 -43 c3 -3 4 -13 1 -22 -5 -21 -73 -29 -73 -9 0 28 53 51
72 31z m-135 -19 c3 -9 3 -19 -1 -22 -8 -9 -37 18 -30 28 8 14 24 11 31 -6z
m-518 -56 c-1 -27 -8 -54 -16 -60 -7 -6 -13 -24 -13 -39 0 -15 -7 -33 -15 -40
-8 -7 -15 -16 -15 -20 0 -4 -18 -38 -40 -74 -35 -58 -40 -73 -40 -127 0 -67
16 -135 37 -160 7 -8 13 -19 13 -23 0 -4 14 -19 30 -33 35 -29 41 -52 8 -29
-36 25 -41 19 -14 -17 28 -37 26 -47 -11 -47 -25 0 -43 -31 -43 -76 0 -21 -3
-24 -25 -18 -23 6 -25 4 -26 -32 -1 -22 -4 -29 -6 -18 -3 15 -12 22 -28 22
-24 0 -40 -22 -29 -40 4 -6 2 -13 -4 -17 -7 -4 -6 -13 4 -25 12 -17 14 -17 20
-3 8 21 24 22 24 3 0 -13 -27 -31 -41 -28 -4 1 -5 -8 -2 -18 4 -16 2 -19 -13
-13 -13 5 -16 3 -11 -10 3 -9 -1 -30 -9 -46 -18 -36 -24 -40 -17 -11 3 13 -1
22 -11 26 -22 9 -46 -13 -46 -42 0 -15 -6 -24 -15 -24 -18 0 -48 -57 -41 -76
3 -8 2 -13 -3 -10 -9 6 -61 -34 -61 -47 0 -4 7 -7 15 -7 8 0 15 -4 15 -10 0
-14 -16 -12 -33 5 -8 8 -17 11 -21 8 -9 -9 -8 -33 2 -32 24 4 23 -4 -6 -31
-25 -23 -39 -28 -61 -24 -22 5 -31 1 -44 -20 -9 -14 -17 -32 -17 -40 0 -7 -7
-16 -15 -20 -11 -4 -15 2 -15 20 0 14 -4 23 -10 19 -6 -4 -8 -11 -5 -16 4 -5
1 -9 -4 -9 -6 0 -11 -6 -11 -12 -1 -13 -55 -78 -65 -78 -3 0 -5 12 -4 28 0 15
3 21 6 14 3 -9 12 -5 29 13 13 14 24 28 24 31 0 8 -9 4 -24 -12 -15 -14 -16
-14 -13 5 2 11 12 30 22 41 19 21 19 22 1 32 -12 7 -15 13 -7 17 19 12 -7 79
-37 95 -33 17 -62 51 -62 71 0 9 -14 17 -40 21 -31 5 -40 11 -40 27 0 17 -5
19 -40 13 -25 -4 -40 -2 -40 4 0 5 -11 10 -24 10 -14 0 -27 4 -30 8 -3 5 -30
7 -59 4 -46 -4 -58 -1 -76 17 -11 11 -30 21 -41 21 -11 0 -20 7 -20 15 0 8 -6
15 -12 15 -7 0 -22 19 -32 43 -13 30 -20 37 -23 25 -3 -13 -15 -18 -44 -18
-21 0 -39 4 -39 9 0 5 -3 17 -6 26 -4 10 -2 15 7 13 9 -2 15 8 17 30 2 18 -1
32 -7 32 -6 0 -11 -6 -12 -12 0 -10 -2 -10 -6 0 -2 6 -11 12 -19 12 -10 0 -14
-12 -14 -40 0 -39 -18 -58 -22 -22 -4 50 19 86 49 75 7 -3 13 0 13 6 0 6 -9
11 -20 11 -11 0 -20 4 -20 10 0 5 3 9 8 9 21 -4 31 3 26 16 -4 8 -17 15 -31
15 -24 0 -24 0 -20 88 3 61 10 97 23 119 10 18 22 33 27 33 4 0 7 5 7 11 0 5
-5 7 -12 3 -8 -5 -9 -2 -4 12 5 10 10 26 12 34 6 19 -40 42 -55 27 -6 -6 -15
-4 -26 7 -15 14 -15 18 -1 31 8 8 22 15 30 15 9 0 16 8 16 20 0 11 5 20 10 20
6 0 10 -4 10 -9 0 -5 21 -9 48 -9 26 0 55 -3 64 -7 11 -4 24 -1 33 9 9 9 20
16 24 16 4 0 17 9 30 21 15 14 31 19 48 16 25 -5 53 3 188 47 65 22 123 25
130 8 4 -11 8 -11 20 2 8 8 15 19 15 25 0 6 8 11 18 11 9 0 24 5 32 11 12 8 9
9 -10 4 -14 -3 -3 6 24 21 47 25 156 40 156 22 0 -5 14 -8 30 -8 17 0 30 5 30
10 0 6 20 9 48 6 26 -2 53 1 59 6 7 6 22 8 33 5 11 -3 23 -1 26 5 3 5 12 7 20
4 7 -3 26 7 41 23 24 23 33 26 58 19 22 -5 32 -4 38 7 4 8 17 15 28 15 12 0
34 9 49 20 25 18 30 19 37 5 8 -14 11 -13 27 4 26 29 37 17 35 -40z m525 3 c6
-10 10 -11 15 -3 4 6 23 14 42 17 58 9 148 11 143 2 -3 -4 -18 -8 -35 -8 -16
0 -29 -4 -29 -10 0 -5 14 -7 30 -5 24 3 30 0 30 -15 0 -10 7 -21 16 -24 9 -4
14 -9 11 -13 -4 -3 -3 -11 2 -17 4 -6 11 -23 15 -38 5 -21 2 -28 -14 -33 -11
-3 -20 -15 -20 -25 0 -13 -5 -17 -15 -14 -15 6 -16 1 -19 -61 -1 -12 -11 -22
-26 -25 -24 -6 -28 -16 -19 -48 2 -8 -3 -19 -12 -25 -13 -8 -23 -5 -47 11 -38
28 -40 28 -53 -5 -6 -17 -13 -23 -20 -16 -6 6 -6 19 1 37 9 23 6 31 -18 54
l-27 27 -3 -27 c-4 -33 -22 -38 -22 -5 0 12 -5 29 -11 37 -8 12 -9 10 -4 -7 3
-12 1 -24 -5 -28 -5 -3 -10 0 -10 8 0 23 -24 64 -51 87 l-24 20 30 -6 c17 -3
25 -2 19 3 -13 9 -15 35 -7 77 4 20 8 25 13 15 7 -11 13 -10 29 5 12 11 21 25
21 31 0 7 7 15 15 19 8 3 15 12 15 20 0 18 31 10 44 -12z m1272 -30 c19 -10
23 -9 27 8 4 16 14 20 50 20 39 0 46 -3 51 -25 5 -18 13 -25 31 -25 17 0 23
-4 19 -14 -3 -7 2 -16 10 -19 11 -5 16 0 16 14 0 19 1 19 33 3 17 -10 26 -19
20 -21 -23 -8 -15 -36 7 -30 17 4 20 2 15 -13 -5 -15 3 -24 34 -39 29 -15 38
-25 34 -39 -7 -27 23 -49 48 -34 10 7 26 12 34 12 18 0 20 -17 3 -23 -18 -5 8
-37 30 -37 12 0 13 -3 4 -12 -7 -7 -12 -31 -12 -54 0 -35 -4 -43 -22 -48 -21
-6 -21 -8 -7 -19 21 -16 4 -34 -37 -39 -22 -2 -29 -8 -27 -23 1 -12 -10 -29
-27 -43 l-30 -24 0 26 c0 13 -4 28 -10 31 -5 3 -10 1 -10 -4 0 -18 -22 -12
-27 7 -2 11 -20 25 -39 32 -19 8 -42 22 -51 32 -9 10 -21 18 -28 18 -6 0 -22
12 -35 27 -34 39 -110 177 -110 200 0 11 -7 28 -15 39 -18 23 -19 55 -3 52 7
-2 14 8 16 22 2 23 1 24 -11 8 -17 -22 -33 -23 -41 -3 -4 11 0 15 12 13 13 -2
16 3 14 27 -1 17 1 25 5 19 4 -6 18 -16 29 -22z m171 2 c-9 -9 -28 6 -21 18 4
6 10 6 17 -1 6 -6 8 -13 4 -17z m-4273 -10 c3 -8 2 -12 -4 -9 -6 3 -10 10 -10
16 0 14 7 11 14 -7z m1973 0 c-3 -3 -12 -4 -19 -1 -8 3 -5 6 6 6 11 1 17 -2
13 -5z m-74 -11 c-7 -2 -19 -2 -25 0 -7 3 -2 5 12 5 14 0 19 -2 13 -5z m2155
-51 c2 -7 -2 -10 -12 -6 -9 3 -16 11 -16 16 0 13 23 5 28 -10z m-3271 -54 c-3
-8 -6 -5 -6 6 -1 11 2 17 5 13 3 -3 4 -12 1 -19z m703 12 c0 -5 -2 -10 -4 -10
-3 0 -8 5 -11 10 -3 6 -1 10 4 10 6 0 11 -4 11 -10z m3010 -66 c0 -2 -7 -4
-15 -4 -8 0 -15 4 -15 10 0 5 7 7 15 4 8 -4 15 -8 15 -10z m-3363 -10 c-3 -3
-12 -4 -19 -1 -8 3 -5 6 6 6 11 1 17 -2 13 -5z m-377 -44 c0 -5 -4 -10 -10
-10 -5 0 -10 5 -10 10 0 6 5 10 10 10 6 0 10 -4 10 -10z m3870 -20 c0 -5 -4
-10 -10 -10 -5 0 -10 5 -10 10 0 6 5 10 10 10 6 0 10 -4 10 -10z m-4720 -32
c0 -16 -3 -19 -11 -11 -6 6 -8 16 -5 22 11 17 16 13 16 -11z m-40 -13 c0 -18
5 -25 20 -25 10 0 24 -9 30 -20 11 -21 5 -44 -9 -36 -4 3 -18 -6 -30 -20 -20
-23 -20 -27 -6 -47 22 -31 19 -57 -6 -57 -11 0 -18 4 -14 9 3 5 -4 16 -15 24
-17 12 -19 22 -16 71 2 34 11 65 20 75 9 10 14 25 10 35 -3 9 -1 16 5 16 6 0
11 -11 11 -25z m1030 -111 c0 -8 -4 -14 -10 -14 -5 0 -10 9 -10 21 0 11 5 17
10 14 6 -3 10 -13 10 -21z m-930 7 c0 -6 -4 -13 -10 -16 -5 -3 -10 1 -10 9 0
9 5 16 10 16 6 0 10 -4 10 -9z m90 0 c0 -11 -26 -22 -34 -14 -12 12 -5 23 14
23 11 0 20 -4 20 -9z m2700 -6 c0 -8 -2 -15 -4 -15 -2 0 -6 7 -10 15 -3 8 -1
15 4 15 6 0 10 -7 10 -15z m-2692 -42 c4 -27 -25 -38 -33 -13 -4 11 -3 25 0
30 10 16 30 6 33 -17z m2470 -39 c12 -4 22 -13 22 -22 0 -11 3 -13 11 -5 8 8
18 4 36 -13 14 -13 40 -26 59 -30 18 -3 35 -12 38 -20 5 -14 27 -20 24 -6 -3
16 14 40 27 36 7 -3 19 2 28 10 9 9 26 16 38 16 12 0 20 -3 16 -6 -3 -3 12
-24 33 -45 26 -27 44 -37 55 -32 14 5 16 2 10 -16 -7 -24 28 -70 55 -71 8 0
29 -9 45 -20 36 -24 63 -25 86 -4 14 12 22 13 38 4 12 -6 21 -7 21 -1 0 5 -6
11 -12 14 -8 3 9 25 41 56 30 28 57 49 59 46 3 -3 12 1 20 8 12 9 16 9 19 0 5
-14 24 -18 22 -5 -7 41 13 41 26 -1 9 -27 8 -36 -6 -51 -16 -16 -15 -61 1 -51
4 3 7 -6 6 -19 0 -13 -3 -23 -5 -21 -1 2 -14 0 -27 -5 -19 -8 -22 -6 -18 8 5
14 4 15 -5 2 -16 -22 -13 -40 4 -34 9 4 15 0 15 -10 0 -9 5 -16 10 -16 6 0 10
-9 10 -20 0 -21 -16 -28 -22 -9 -3 8 -19 10 -50 5 -35 -5 -47 -12 -52 -29 -6
-24 1 -37 12 -20 5 7 13 2 25 -13 10 -13 13 -24 7 -24 -5 0 -10 5 -10 10 0 6
-8 10 -17 10 -13 0 -14 -3 -5 -12 7 -7 12 -16 12 -22 0 -5 -8 0 -17 11 -10 11
-29 22 -43 26 -23 5 -22 3 10 -24 19 -17 46 -35 59 -40 15 -6 21 -15 17 -25
-3 -9 -6 -20 -6 -25 0 -15 -22 -10 -35 8 -11 15 -14 14 -29 -15 -9 -18 -20
-32 -24 -31 -13 1 -52 58 -43 63 5 3 11 -1 15 -9 6 -17 36 -21 36 -5 0 6 -7
10 -15 10 -11 0 -14 7 -9 24 3 13 1 27 -5 31 -6 3 -9 11 -6 16 4 5 -5 9 -19 9
-33 0 -33 -18 0 -30 14 -6 22 -14 19 -20 -10 -16 -30 -12 -50 10 -14 16 -16
23 -7 32 16 16 15 28 -2 28 -8 0 -12 7 -10 18 2 9 -3 26 -11 37 -13 16 -17 17
-24 6 -5 -8 -7 -20 -4 -28 3 -7 0 -13 -7 -13 -6 0 -8 -4 -5 -10 3 -5 -1 -10
-10 -10 -12 0 -15 6 -10 20 5 14 2 20 -9 20 -9 0 -16 5 -16 10 0 6 -5 10 -10
10 -6 0 -8 -13 -5 -29 4 -23 1 -30 -16 -34 -12 -3 -18 -10 -14 -16 3 -6 0 -11
-8 -11 -14 0 -28 -26 -32 -60 -1 -8 -8 -29 -14 -46 -10 -25 -17 -31 -33 -26
-18 4 -20 2 -14 -21 4 -19 1 -29 -11 -35 -17 -10 -43 6 -43 27 0 6 -7 11 -16
11 -11 0 -13 -6 -9 -19 3 -11 1 -22 -5 -26 -6 -3 -7 -12 -3 -18 5 -8 2 -8 -9
1 -15 12 -14 62 1 62 10 0 8 31 -3 48 -4 7 -1 14 8 18 8 3 12 12 10 19 -3 7
-1 16 5 20 6 3 11 -1 11 -10 0 -9 6 -15 13 -12 6 2 12 10 12 18 0 8 11 15 25
16 14 1 18 0 8 -3 -10 -3 -18 -10 -18 -16 0 -11 49 -2 63 11 11 11 -58 51 -91
52 -26 1 -26 1 -4 7 24 7 31 24 13 30 -6 2 -11 0 -11 -5 0 -4 -12 -9 -26 -9
-24 -2 -24 -1 -9 16 9 10 14 24 10 30 -4 6 -2 16 4 23 5 7 6 18 2 25 -6 10
-14 10 -36 -2 -30 -16 -59 -11 -51 10 3 7 -4 15 -17 17 l-22 4 22 8 c25 8 37
53 18 72 -7 7 -11 21 -8 32 4 17 -2 21 -39 26 -25 4 -53 6 -64 5 -35 -4 -54 0
-54 11 0 5 5 7 12 3 7 -4 8 -3 4 5 -4 6 -16 9 -26 6 -10 -3 -30 0 -44 6 -21
10 -26 18 -23 41 5 44 42 58 105 42z m-2483 -34 c-5 -8 -11 -8 -17 -2 -6 6 -7
16 -3 22 5 8 11 8 17 2 6 -6 7 -16 3 -22z m3375 -170 c0 -5 -2 -10 -4 -10 -3
0 -8 5 -11 10 -3 6 -1 10 4 10 6 0 11 -4 11 -10z m4620 -92 c0 -5 8 -7 18 -4
11 4 28 -2 42 -14 13 -11 35 -20 50 -20 36 0 85 -25 110 -57 16 -20 20 -39 19
-75 -2 -45 -31 -108 -50 -108 -4 0 -24 -14 -44 -31 -19 -17 -35 -28 -35 -25 0
4 -12 -1 -26 -10 -44 -30 -120 -26 -183 7 -58 31 -91 60 -91 80 0 7 -7 20 -16
30 -20 22 -32 109 -15 109 6 0 11 7 11 16 0 24 54 71 110 95 14 6 32 14 39 18
19 9 61 2 61 -11z m-5940 -13 c0 -8 -4 -15 -10 -15 -5 0 -10 7 -10 15 0 8 5
15 10 15 6 0 10 -7 10 -15z m626 -14 c-13 -15 -14 -20 -4 -24 8 -4 7 -6 -4 -6
-11 -1 -18 6 -18 17 0 23 8 32 28 32 13 0 12 -3 -2 -19z m-2862 -41 c7 0 21
-9 31 -20 10 -11 15 -20 10 -20 -4 0 -3 -6 2 -12 6 -9 5 -22 -3 -38 -8 -14
-14 -19 -14 -12 0 6 -5 12 -11 12 -5 0 -7 -6 -3 -12 4 -7 -7 1 -24 17 -29 28
-30 31 -16 53 12 18 13 27 4 37 -7 8 -8 20 -3 27 6 9 9 7 11 -9 2 -13 9 -23
16 -23z m2810 -15 c-4 -8 -10 -12 -15 -9 -11 6 -2 24 11 24 5 0 7 -7 4 -15z
m-2497 -35 c0 -17 6 -41 13 -55 12 -22 11 -28 -3 -42 -16 -16 -17 -16 -17 0 0
10 -8 17 -19 17 -14 0 -18 7 -17 33 1 30 23 77 37 77 3 0 6 -14 6 -30z m2523
5 c-7 -8 -18 -15 -24 -15 -6 0 -2 7 8 15 25 19 32 19 16 0z m275 6 c-3 -5 5
-11 17 -14 21 -3 21 -4 4 -12 -12 -5 -21 -3 -27 6 -12 19 -11 29 2 29 5 0 8
-4 4 -9z m360 -1 c3 -5 2 -10 -4 -10 -5 0 -13 5 -16 10 -3 6 -2 10 4 10 5 0
13 -4 16 -10z m-595 -24 c0 -3 -4 -8 -10 -11 -5 -3 -10 -1 -10 4 0 6 5 11 10
11 6 0 10 -2 10 -4z m270 -46 c0 -5 -2 -10 -4 -10 -3 0 -8 5 -11 10 -3 6 -1
10 4 10 6 0 11 -4 11 -10z m89 -32 c-1 -13 -4 -34 -8 -48 l-7 -25 -16 33 c-16
31 -16 32 5 33 12 0 16 3 10 6 -18 7 -16 23 2 23 9 0 15 -9 14 -22z m281 2 c0
-5 -2 -10 -4 -10 -3 0 -8 5 -11 10 -3 6 -1 10 4 10 6 0 11 -4 11 -10z m-114
-15 c-4 -10 1 -15 14 -15 12 0 20 7 20 17 0 14 2 15 13 4 10 -10 8 -15 -7 -27
-19 -14 -19 -14 4 -39 19 -21 21 -25 7 -25 -9 0 -16 6 -14 13 1 7 -6 11 -17 9
-14 -3 -17 1 -12 13 4 11 2 15 -6 12 -7 -2 -12 -15 -11 -28 1 -13 -1 -18 -3
-11 -8 17 -24 15 -24 -3 0 -8 5 -15 10 -15 6 0 10 -5 10 -11 0 -5 -6 -7 -12
-3 -7 5 -21 9 -31 9 -10 1 -22 6 -28 12 -7 7 -3 9 15 6 15 -3 26 -1 26 6 0 6
-9 11 -19 11 -10 0 -22 7 -25 16 -4 12 -2 15 9 10 52 -21 51 -21 33 1 -23 26
-23 28 9 30 15 0 29 6 31 12 2 6 6 11 9 11 3 0 3 -7 -1 -15z m-226 -24 c0 -5
-7 -11 -14 -14 -10 -4 -13 -1 -9 9 6 15 23 19 23 5z m320 -6 c0 -8 -4 -15 -10
-15 -5 0 -10 7 -10 15 0 8 5 15 10 15 6 0 10 -7 10 -15z m-200 -24 c0 -3 -4
-12 -8 -19 -6 -9 -12 -6 -20 12 -9 21 -8 23 9 19 10 -3 19 -8 19 -12z m-300
-21 c0 -11 -2 -20 -4 -20 -2 0 -6 9 -9 20 -3 11 -1 20 4 20 5 0 9 -9 9 -20z
m-2674 -17 c-10 -10 -19 5 -10 18 6 11 8 11 12 0 2 -7 1 -15 -2 -18z m2989
-13 c3 -5 -1 -10 -9 -10 -9 0 -16 5 -16 10 0 6 4 10 9 10 6 0 13 -4 16 -10z
m-1245 -35 c0 -2 -7 -5 -15 -9 -9 -3 -15 0 -15 9 0 9 6 12 15 9 8 -4 15 -7 15
-9z m900 0 c0 -8 -7 -15 -15 -15 -8 0 -15 -7 -15 -15 0 -8 -5 -15 -11 -15 -6
0 -8 7 -5 16 3 9 6 22 6 30 0 8 9 14 20 14 11 0 20 -7 20 -15z m377 9 c-3 -3
-12 -4 -19 -1 -8 3 -5 6 6 6 11 1 17 -2 13 -5z m96 -1 c-7 -2 -19 -2 -25 0 -7
3 -2 5 12 5 14 0 19 -2 13 -5z m-93 -23 c0 -5 -7 -10 -16 -10 -8 0 -12 5 -9
10 3 6 10 10 16 10 5 0 9 -4 9 -10z m-395 -80 c-2 -38 8 -54 18 -27 3 6 6 2 6
-10 1 -25 21 -43 21 -19 0 20 17 20 36 1 12 -12 12 -15 2 -16 -10 0 -10 -2 0
-6 6 -2 12 -9 12 -15 0 -17 -83 -2 -97 18 -9 13 -16 14 -26 6 -10 -9 -22 -7
-50 6 -43 20 -46 29 -13 38 17 4 22 11 19 25 -4 13 0 19 11 19 9 0 16 -5 16
-11 0 -5 5 -7 10 -4 6 3 10 -1 10 -9 0 -9 5 -16 10 -16 12 0 12 2 0 34 -7 20
-6 26 4 26 9 0 12 -12 11 -40z m-975 10 c0 -5 -5 -10 -11 -10 -5 0 -7 5 -4 10
3 6 8 10 11 10 2 0 4 -4 4 -10z m1485 -40 c-18 -20 -51 -28 -40 -10 15 24 -12
7 -42 -27 -34 -38 -50 -39 -38 -3 4 14 12 19 22 16 9 -4 17 1 20 13 5 18 23
25 77 30 18 1 19 0 1 -19z m-610 -40 c3 -5 1 -10 -4 -10 -6 0 -11 5 -11 10 0
6 2 10 4 10 3 0 8 -4 11 -10z m440 -20 c3 -5 1 -10 -4 -10 -6 0 -11 5 -11 10
0 6 2 10 4 10 3 0 8 -4 11 -10z m-115 -24 c0 -3 -4 -8 -10 -11 -5 -3 -10 -1
-10 4 0 6 5 11 10 11 6 0 10 -2 10 -4z m-1382 -18 c-2 -7 -11 -16 -21 -20 -10
-4 -15 -12 -12 -18 3 -5 1 -10 -4 -10 -6 0 -11 9 -11 20 0 11 7 20 15 20 8 0
15 5 15 10 0 6 5 10 10 10 6 0 9 -6 8 -12z m-1304 -93 c-4 -8 -10 -12 -15 -9
-11 6 -2 24 11 24 5 0 7 -7 4 -15z m1283 -1 c-3 -3 -12 -4 -19 -1 -8 3 -5 6 6
6 11 1 17 -2 13 -5z m-1282 -34 c3 -5 1 -10 -4 -10 -6 0 -11 5 -11 10 0 6 2
10 4 10 3 0 8 -4 11 -10z m2548 -261 c6 -23 -1 -49 -13 -49 -4 0 -13 13 -18
28 -9 25 -14 28 -41 24 -36 -5 -36 -10 0 -15 17 -3 25 -11 27 -28 2 -19 1 -21
-7 -9 -9 13 -11 12 -12 -5 -1 -11 -1 -23 -1 -27 2 -14 -29 -17 -34 -3 -5 11
-9 12 -19 2 -7 -7 -11 -15 -8 -19 2 -5 -5 -8 -16 -8 -18 0 -19 2 -5 28 16 31
19 66 4 57 -5 -3 -10 -15 -10 -26 0 -11 -7 -19 -16 -19 -10 0 -12 4 -7 13 4 6
8 20 8 31 0 23 52 43 116 45 39 1 48 -2 52 -20z m47 -4 c11 -13 10 -14 -4 -9
-9 3 -16 10 -16 15 0 13 6 11 20 -6z m-256 -40 c-4 -8 -8 -15 -10 -15 -2 0 -4
7 -4 15 0 8 4 15 10 15 5 0 7 -7 4 -15z m266 0 c0 -8 -4 -15 -9 -15 -5 0 -11
7 -15 15 -3 9 0 15 9 15 8 0 15 -7 15 -15z m208 -624 c11 -7 10 -10 -3 -15
-20 -7 -38 1 -30 15 7 11 16 11 33 0z m-51 -35 c-2 -6 -10 -11 -18 -12 -24 -1
-79 -25 -79 -35 0 -13 31 -10 59 5 34 19 71 9 71 -19 0 -13 7 -36 15 -51 11
-21 15 -24 15 -11 0 10 5 15 10 12 21 -13 10 -34 -15 -29 -18 3 -25 0 -25 -12
0 -15 -2 -15 -24 0 -14 8 -26 12 -28 8 -4 -11 -88 7 -88 19 0 5 6 9 14 9 11 0
11 6 -2 35 -17 36 -32 46 -32 20 0 -8 5 -15 10 -15 6 0 10 -5 10 -11 0 -6 -7
-8 -16 -5 -12 4 -14 1 -9 -14 5 -14 2 -20 -10 -20 -9 0 -14 4 -11 9 3 5 -2 15
-11 22 -15 12 -16 12 -10 -3 3 -10 2 -18 -3 -18 -13 0 -13 13 2 45 6 14 17 25
25 25 7 0 12 3 12 8 -4 24 4 32 34 32 17 1 43 7 56 14 27 15 54 10 48 -8z
m-139 -141 c24 7 92 -21 106 -43 7 -12 10 -12 18 -1 6 10 7 7 3 -9 -5 -18 -2
-25 13 -29 13 -3 18 -11 15 -19 -3 -8 1 -14 11 -14 9 0 15 -3 15 -7 -4 -24 3
-35 17 -29 13 5 15 2 11 -16 -4 -12 -1 -28 4 -35 16 -18 1 -37 -18 -22 -12 10
-16 10 -23 -1 -5 -8 -12 -11 -16 -7 -12 11 -33 -13 -27 -30 5 -13 1 -15 -20
-11 -20 4 -27 1 -27 -10 0 -13 -3 -12 -20 3 -11 10 -20 13 -20 7 0 -6 -9 -14
-20 -17 -12 -4 -19 -14 -18 -23 2 -12 -3 -16 -17 -14 -11 2 -22 7 -25 12 -3 4
-15 10 -27 14 -18 6 -22 4 -17 -8 3 -9 2 -16 -4 -16 -14 0 -53 64 -42 68 16 6
11 30 -7 34 -14 3 -13 7 10 30 30 30 35 48 13 48 -20 0 -8 40 13 41 9 1 23 2
31 3 9 0 15 11 15 29 0 15 6 31 14 36 8 6 11 17 6 32 -4 17 -3 20 3 10 6 -8
18 -11 30 -6z m241 -29 c10 -12 8 -13 -8 -9 -12 3 -21 9 -21 14 0 14 16 11 29
-5z m-62 -31 c0 -8 -6 -15 -14 -15 -7 0 -13 7 -13 15 0 8 6 15 13 15 8 0 14
-7 14 -15z m53 -40 c0 -13 -8 -26 -17 -30 -14 -5 -15 -3 -6 6 9 9 8 17 -3 35
-14 21 -14 22 5 17 14 -3 21 -14 21 -28z m67 -87 c3 -10 9 -18 14 -18 5 0 9
-4 9 -10 0 -17 -23 -6 -47 21 -28 33 -29 39 -2 32 12 -4 24 -14 26 -25z m-67
-68 c0 -5 -4 -10 -10 -10 -5 0 -10 5 -10 10 0 6 5 10 10 10 6 0 10 -4 10 -10z
m-182 -95 c-3 -3 -9 2 -12 12 -6 14 -5 15 5 6 7 -7 10 -15 7 -18z m62 15 c0
-5 -12 -10 -26 -10 -14 0 -23 4 -19 10 3 6 15 10 26 10 10 0 19 -4 19 -10z"/>
<path d="M8000 15520 c0 -5 5 -10 11 -10 5 0 7 5 4 10 -3 6 -8 10 -11 10 -2 0
-4 -4 -4 -10z"/>
<path d="M7890 15495 c0 -8 5 -15 10 -15 6 0 10 7 10 15 0 8 -4 15 -10 15 -5
0 -10 -7 -10 -15z"/>
<path d="M9473 14663 c-18 -7 -16 -23 2 -23 8 0 15 7 15 15 0 8 -1 15 -2 14
-2 0 -9 -3 -15 -6z"/>
<path d="M8077 14624 c4 -10 13 -14 27 -10 11 3 30 6 41 7 14 1 10 4 -10 9
-51 13 -65 12 -58 -6z"/>
<path d="M9320 14630 c0 -13 11 -13 30 0 12 8 11 10 -7 10 -13 0 -23 -4 -23
-10z"/>
<path d="M8406 14545 c10 -8 24 -14 29 -14 6 0 1 6 -9 14 -11 8 -24 15 -30 15
-5 0 -1 -7 10 -15z"/>
<path d="M9630 14545 c0 -8 4 -15 9 -15 5 0 11 7 15 15 3 9 0 15 -9 15 -8 0
-15 -7 -15 -15z"/>
<path d="M8556 14538 c3 -4 21 -8 40 -8 19 0 33 4 30 9 -3 5 -21 9 -40 8 -19
0 -33 -5 -30 -9z"/>
<path d="M8775 14540 c3 -5 10 -10 16 -10 5 0 9 5 9 10 0 6 -7 10 -16 10 -8 0
-12 -4 -9 -10z"/>
<path d="M8370 14530 c0 -5 9 -10 21 -10 11 0 17 5 14 10 -3 6 -13 10 -21 10
-8 0 -14 -4 -14 -10z"/>
<path d="M8850 14531 c0 -5 9 -11 19 -14 14 -3 18 -1 14 9 -6 15 -33 19 -33 5z"/>
<path d="M9520 14529 c0 -5 5 -7 10 -4 6 3 10 8 10 11 0 2 -4 4 -10 4 -5 0
-10 -5 -10 -11z"/>
<path d="M9038 14473 c7 -3 16 -2 19 1 4 3 -2 6 -13 5 -11 0 -14 -3 -6 -6z"/>
<path d="M9470 14444 c0 -8 5 -12 10 -9 6 3 10 10 10 16 0 5 -4 9 -10 9 -5 0
-10 -7 -10 -16z"/>
<path d="M7611 14433 c-16 -17 -11 -25 8 -14 7 5 12 13 10 19 -2 6 -10 4 -18
-5z"/>
<path d="M7635 14360 c-3 -5 1 -10 10 -10 9 0 13 5 10 10 -3 6 -8 10 -10 10
-2 0 -7 -4 -10 -10z"/>
<path d="M9370 14325 c7 -9 15 -13 17 -11 7 7 -7 26 -19 26 -6 0 -6 -6 2 -15z"/>
<path d="M7612 14290 c0 -14 2 -19 5 -12 2 6 2 18 0 25 -3 6 -5 1 -5 -13z"/>
<path d="M7730 14230 c0 -5 5 -10 10 -10 6 0 10 5 10 10 0 6 -4 10 -10 10 -5
0 -10 -4 -10 -10z"/>
<path d="M7760 14234 c0 -15 48 -36 55 -24 4 6 -2 10 -12 10 -11 0 -24 5 -31
12 -7 7 -12 8 -12 2z"/>
<path d="M9175 14220 c-3 -5 -1 -10 4 -10 6 0 11 5 11 10 0 6 -2 10 -4 10 -3
0 -8 -4 -11 -10z"/>
<path d="M8906 14198 c-3 -13 -6 -25 -6 -28 -1 -2 2 -6 7 -7 4 -2 9 11 10 27
3 36 -2 39 -11 8z"/>
<path d="M8125 14200 c3 -5 8 -10 11 -10 2 0 4 5 4 10 0 6 -5 10 -11 10 -5 0
-7 -4 -4 -10z"/>
<path d="M8415 14180 c3 -5 17 -10 30 -10 13 0 27 5 30 10 4 6 -8 10 -30 10
-22 0 -34 -4 -30 -10z"/>
<path d="M8560 14179 c0 -6 9 -9 20 -6 10 3 27 -1 37 -9 10 -7 25 -13 33 -14
8 0 0 9 -18 20 -36 22 -72 26 -72 9z"/>
<path d="M9065 14180 c-3 -5 -1 -10 4 -10 6 0 11 5 11 10 0 6 -2 10 -4 10 -3
0 -8 -4 -11 -10z"/>
<path d="M8355 14170 c-3 -5 1 -10 10 -10 9 0 13 5 10 10 -3 6 -8 10 -10 10
-2 0 -7 -4 -10 -10z"/>
<path d="M8488 14163 c10 -4 10 -8 1 -19 -9 -11 -7 -14 15 -14 25 0 25 1 9 20
-10 11 -22 20 -28 19 -5 0 -4 -3 3 -6z"/>
<path d="M8405 14150 c28 -12 55 -12 55 0 0 6 -17 10 -37 9 -31 0 -34 -2 -18
-9z"/>
<path d="M9025 14150 c-3 -5 -1 -10 4 -10 6 0 11 5 11 10 0 6 -2 10 -4 10 -3
0 -8 -4 -11 -10z"/>
<path d="M8975 14130 c3 -5 11 -10 16 -10 6 0 7 5 4 10 -3 6 -11 10 -16 10 -6
0 -7 -4 -4 -10z"/>
<path d="M8905 14120 c3 -5 10 -10 16 -10 5 0 9 5 9 10 0 6 -7 10 -16 10 -8 0
-12 -4 -9 -10z"/>
<path d="M7310 13959 c0 -5 5 -7 10 -4 6 3 10 8 10 11 0 2 -4 4 -10 4 -5 0
-10 -5 -10 -11z"/>
<path d="M7201 13834 c0 -11 3 -14 6 -6 3 7 2 16 -1 19 -3 4 -6 -2 -5 -13z"/>
<path d="M7155 13710 c3 -5 10 -10 16 -10 5 0 9 5 9 10 0 6 -7 10 -16 10 -8 0
-12 -4 -9 -10z"/>
<path d="M6790 13745 c0 -8 5 -15 10 -15 6 0 10 7 10 15 0 8 -4 15 -10 15 -5
0 -10 -7 -10 -15z"/>
<path d="M6801 13684 c0 -11 3 -14 6 -6 3 7 2 16 -1 19 -3 4 -6 -2 -5 -13z"/>
<path d="M8090 12125 c-10 -13 -9 -15 9 -15 11 0 21 4 21 9 0 18 -18 21 -30 6z"/>
<path d="M7728 12113 c-10 -2 -18 -9 -18 -14 0 -11 28 -11 90 0 45 8 45 8 8
10 -20 0 -42 3 -50 5 -7 2 -21 2 -30 -1z"/>
<path d="M7940 12110 c-24 -8 -23 -8 8 -9 20 -1 31 3 27 9 -3 6 -7 10 -8 9 -1
-1 -13 -5 -27 -9z"/>
<path d="M7669 12049 c-10 -6 -7 -9 14 -9 29 0 35 5 14 13 -8 3 -20 1 -28 -4z"/>
<path d="M7493 12010 c1 -15 6 -18 27 -13 31 7 39 13 17 13 -9 0 -17 5 -17 10
0 6 -6 10 -14 10 -9 0 -14 -9 -13 -20z"/>
<path d="M7437 12003 c-10 -9 -9 -23 2 -23 5 0 11 7 15 15 5 15 -5 20 -17 8z"/>
<path d="M7745 12000 c-3 -5 -1 -10 4 -10 6 0 11 5 11 10 0 6 -2 10 -4 10 -3
0 -8 -4 -11 -10z"/>
<path d="M7065 11869 c-4 -12 -2 -26 4 -32 8 -8 11 -2 11 21 0 37 -6 41 -15
11z"/>
<path d="M7120 11795 c0 -18 19 -40 26 -32 4 4 0 15 -9 24 -9 10 -17 13 -17 8z"/>
<path d="M7135 11701 c-7 -12 12 -24 25 -16 11 7 4 25 -10 25 -5 0 -11 -4 -15
-9z"/>
<path d="M7020 11670 c0 -5 5 -10 10 -10 6 0 10 5 10 10 0 6 -4 10 -10 10 -5
0 -10 -4 -10 -10z"/>
<path d="M7041 11554 c0 -11 3 -14 6 -6 3 7 2 16 -1 19 -3 4 -6 -2 -5 -13z"/>
<path d="M7040 11520 c0 -5 9 -10 20 -10 11 0 20 -4 20 -10 0 -5 8 -10 18 -10
12 0 8 6 -13 20 -34 22 -45 25 -45 10z"/>
<path d="M7121 11488 c0 -9 -7 -18 -13 -21 -7 -2 -10 -8 -5 -12 11 -13 29 11
24 31 -4 16 -5 16 -6 2z"/>
<path d="M7152 11484 c4 -21 22 -23 26 -1 2 10 -3 17 -13 17 -10 0 -15 -6 -13
-16z"/>
<path d="M7111 11384 c0 -11 3 -14 6 -6 3 7 2 16 -1 19 -3 4 -6 -2 -5 -13z"/>
<path d="M7070 11370 c0 -5 5 -10 11 -10 5 0 7 5 4 10 -3 6 -8 10 -11 10 -2 0
-4 -4 -4 -10z"/>
<path d="M7210 11290 c0 -5 7 -10 16 -10 8 0 12 5 9 10 -3 6 -10 10 -16 10 -5
0 -9 -4 -9 -10z"/>
<path d="M7448 11213 c6 -2 18 -2 25 0 6 3 1 5 -13 5 -14 0 -19 -2 -12 -5z"/>
<path d="M9112 12087 c-26 -28 -27 -34 -7 -34 9 0 14 6 11 14 -3 7 1 13 9 13
8 0 15 7 15 15 0 20 -3 19 -28 -8z"/>
<path d="M8810 12020 c0 -5 5 -10 11 -10 5 0 7 5 4 10 -3 6 -8 10 -11 10 -2 0
-4 -4 -4 -10z"/>
<path d="M9062 12018 c2 -6 10 -14 16 -16 7 -2 10 2 6 12 -7 18 -28 22 -22 4z"/>
<path d="M8880 12009 c0 -5 5 -7 10 -4 6 3 10 8 10 11 0 2 -4 4 -10 4 -5 0
-10 -5 -10 -11z"/>
<path d="M10580 11820 c0 -5 5 -10 10 -10 6 0 10 5 10 10 0 6 -4 10 -10 10 -5
0 -10 -4 -10 -10z"/>
<path d="M8560 11619 c0 -5 5 -7 10 -4 6 3 10 8 10 11 0 2 -4 4 -10 4 -5 0
-10 -5 -10 -11z"/>
<path d="M8725 11606 c-10 -7 -14 -15 -9 -19 5 -3 17 1 27 8 10 7 14 16 9 19
-5 3 -17 -1 -27 -8z"/>
<path d="M8840 11600 c-11 -7 -12 -12 -3 -21 8 -8 14 -6 22 10 12 22 5 27 -19
11z"/>
<path d="M9312 11414 c10 -10 20 -15 24 -12 3 4 -5 12 -18 18 -22 12 -22 12
-6 -6z"/>
<path d="M9355 11390 c3 -5 8 -10 11 -10 2 0 4 5 4 10 0 6 -5 10 -11 10 -5 0
-7 -4 -4 -10z"/>
<path d="M9330 11380 c0 -5 5 -10 11 -10 5 0 7 5 4 10 -3 6 -8 10 -11 10 -2 0
-4 -4 -4 -10z"/>
<path d="M8907 11343 c-3 -5 -1 -17 4 -28 7 -17 8 -17 8 8 1 27 -4 34 -12 20z"/>
<path d="M9200 11330 c0 -5 5 -10 10 -10 6 0 10 5 10 10 0 6 -4 10 -10 10 -5
0 -10 -4 -10 -10z"/>
<path d="M9260 11267 c0 -17 22 -47 34 -47 11 0 6 15 -14 40 -17 21 -20 22
-20 7z"/>
<path d="M8947 11206 c-4 -10 -1 -13 8 -9 8 3 12 9 9 14 -7 12 -11 11 -17 -5z"/>
<path d="M8870 11170 c-30 -16 -32 -19 -16 -26 10 -4 21 -3 25 3 3 5 14 12 24
16 9 3 17 11 17 17 0 13 -8 12 -50 -10z"/>
<path d="M8940 11170 c0 -5 5 -10 11 -10 5 0 7 5 4 10 -3 6 -8 10 -11 10 -2 0
-4 -4 -4 -10z"/>
<path d="M8896 11117 c3 -10 9 -15 12 -12 3 3 0 11 -7 18 -10 9 -11 8 -5 -6z"/>
<path d="M8902 10370 c14 -22 24 -19 15 5 -4 8 -11 15 -17 15 -6 0 -6 -7 2
-20z"/>
<path d="M9191 9666 c-7 -8 -8 -17 -3 -20 6 -3 13 1 16 10 9 23 2 28 -13 10z"/>
<path d="M9050 9640 c0 -5 5 -10 10 -10 6 0 10 5 10 10 0 6 -4 10 -10 10 -5 0
-10 -4 -10 -10z"/>
<path d="M9225 9590 c3 -5 8 -10 11 -10 2 0 4 5 4 10 0 6 -5 10 -11 10 -5 0
-7 -4 -4 -10z"/>
<path d="M9150 9455 c-6 -16 -17 -25 -32 -25 -15 0 -19 -3 -12 -10 8 -8 20 -7
40 2 32 14 44 26 44 46 0 22 -30 13 -40 -13z"/>
<path d="M9048 9443 c7 -3 16 -2 19 1 4 3 -2 6 -13 5 -11 0 -14 -3 -6 -6z"/>
<path d="M9200 9435 c0 -8 7 -15 15 -15 8 0 15 4 15 9 0 5 -7 11 -15 15 -9 3
-15 0 -15 -9z"/>
<path d="M9157 9404 c-3 -3 -3 -12 0 -20 3 -9 -2 -14 -16 -14 -12 0 -21 -4
-21 -10 0 -5 5 -10 10 -10 6 0 10 -7 10 -15 0 -8 5 -15 10 -15 6 0 10 9 10 20
0 11 3 21 8 21 4 1 22 3 41 5 41 5 48 11 34 25 -8 8 -17 8 -32 0 -17 -10 -21
-9 -21 4 0 15 -21 21 -33 9z"/>
<path d="M9050 9381 c0 -12 28 -22 35 -12 3 5 -2 12 -11 15 -21 8 -24 8 -24
-3z"/>
<path d="M8964 9368 c-10 -15 1 -19 26 -10 l24 9 -22 5 c-12 4 -25 2 -28 -4z"/>
<path d="M9080 9338 c0 -18 18 -34 28 -24 3 4 -2 14 -11 23 -16 16 -17 16 -17
1z"/>
<path d="M8965 9290 c3 -5 8 -10 11 -10 2 0 4 5 4 10 0 6 -5 10 -11 10 -5 0
-7 -4 -4 -10z"/>
<path d="M0 11920 l0 -316 94 1 c76 0 98 -3 113 -17 11 -10 25 -18 31 -18 7 0
42 -29 79 -65 37 -36 70 -65 73 -65 9 0 80 -143 80 -160 0 -12 59 -50 78 -50
8 0 29 -7 48 -16 19 -9 37 -14 41 -11 3 4 17 -3 31 -13 13 -11 33 -20 44 -20
11 0 16 -4 13 -10 -3 -5 -1 -10 6 -10 7 0 24 -11 38 -24 51 -48 121 -77 191
-78 56 -1 76 4 140 34 41 20 92 48 112 61 46 32 183 97 202 97 8 0 18 5 22 11
10 16 112 4 133 -15 10 -9 27 -16 38 -16 11 0 42 -9 68 -21 26 -11 76 -25 111
-30 56 -8 70 -6 104 11 22 11 46 20 55 20 17 0 50 17 79 40 10 8 19 13 20 11
2 -5 80 33 87 42 3 5 10 9 15 9 22 1 34 12 34 29 0 10 -5 19 -10 19 -6 0 -9 3
-9 8 3 20 -3 30 -26 40 -14 6 -25 18 -25 27 0 8 -6 15 -14 15 -10 0 -17 16
-22 46 -3 25 -12 50 -18 55 -59 47 -78 61 -118 82 -25 13 -57 27 -70 30 -13 4
-39 20 -58 36 -19 17 -40 35 -47 41 -7 5 -16 10 -21 10 -4 0 -18 9 -29 19 -26
25 -79 47 -165 70 -78 21 -113 18 -148 -14 -14 -13 -52 -38 -84 -56 -55 -31
-65 -33 -160 -33 -74 0 -114 4 -150 18 -61 22 -106 55 -106 76 0 9 -9 33 -19
54 -11 21 -17 44 -14 52 3 8 0 14 -6 14 -6 0 -11 7 -11 15 0 25 -33 85 -47 85
-8 0 -11 5 -8 10 3 6 1 10 -5 10 -6 0 -9 8 -6 18 6 19 -7 46 -24 48 -24 3 -24
6 0 14 l25 8 -25 2 c-22 1 -23 2 -6 9 54 21 -277 83 -355 66 -15 -3 -30 -1
-34 4 -4 7 -69 10 -186 9 l-179 -2 0 -316z"/>
<path d="M5760 12171 c0 -6 4 -13 10 -16 6 -3 7 1 4 9 -7 18 -14 21 -14 7z"/>
<path d="M5726 12125 c4 -8 8 -15 10 -15 2 0 4 7 4 15 0 8 -4 15 -10 15 -5 0
-7 -7 -4 -15z"/>
<path d="M3388 10660 c-14 -10 -28 -17 -31 -14 -3 3 -24 -13 -47 -36 -39 -38
-41 -42 -27 -63 8 -12 27 -29 43 -37 15 -8 34 -20 41 -27 14 -12 78 -22 168
-24 83 -2 81 -2 95 30 17 41 6 65 -60 132 -55 56 -60 59 -107 59 -35 0 -58 -6
-75 -20z"/>
<path d="M0 7494 l1 -2819 38 -18 c20 -9 52 -17 69 -17 18 0 32 -4 32 -8 0
-16 92 -31 117 -19 16 7 38 7 75 -1 29 -6 105 -14 168 -18 63 -4 133 -13 155
-20 57 -19 103 -17 132 6 14 11 31 20 38 20 6 0 20 9 30 20 14 16 20 17 26 8
6 -9 18 -2 44 26 19 21 35 45 35 52 0 8 5 14 10 14 27 0 66 151 43 162 -5 2
-16 20 -25 41 l-18 37 -115 -2 c-63 -2 -115 -6 -115 -10 0 -5 -5 -8 -11 -8 -5
0 -7 5 -4 10 4 6 -6 10 -23 10 -16 0 -35 6 -42 14 -6 8 -24 16 -38 18 -19 2
-28 10 -30 25 -2 15 2 23 11 23 8 0 20 6 26 13 6 8 29 20 51 27 22 7 40 18 40
25 0 16 88 45 138 45 33 0 48 6 66 24 17 19 34 25 77 28 39 2 62 9 84 26 19
16 31 20 33 12 3 -7 12 -4 28 11 13 12 30 19 38 16 9 -4 16 -2 16 3 0 6 18 10
40 10 22 0 40 -4 40 -10 0 -5 18 -14 39 -21 48 -14 80 -42 105 -91 11 -21 26
-38 35 -38 9 0 23 -17 33 -40 18 -43 68 -80 108 -80 14 0 40 9 58 20 18 11 41
20 51 20 24 0 51 31 51 58 0 12 5 22 10 22 15 0 83 70 100 102 7 15 21 37 32
47 10 11 18 24 18 29 0 5 13 12 30 16 29 5 30 7 30 66 0 33 4 60 10 60 6 0 10
7 10 15 0 17 71 39 80 25 4 -6 18 -6 36 -1 39 11 141 -3 163 -23 10 -9 22 -16
28 -16 6 0 13 -18 15 -40 3 -33 0 -40 -14 -40 -10 0 -18 -4 -18 -9 0 -15 -55
-30 -73 -19 -22 12 -57 -7 -57 -32 0 -23 71 -98 88 -92 6 2 12 -1 12 -7 0 -7
10 -9 28 -5 34 8 54 23 46 35 -3 5 15 30 39 56 66 69 77 82 77 92 0 5 6 16 13
23 6 7 18 31 26 53 8 22 40 82 72 134 33 51 59 100 59 110 2 61 177 297 272
367 62 45 98 92 103 134 1 8 4 22 8 30 4 8 13 35 22 58 8 24 26 53 40 64 14
11 25 25 25 31 1 22 86 76 138 88 29 6 52 14 52 18 0 3 21 13 46 20 37 11 45
17 41 33 -4 15 -1 18 15 12 13 -4 27 1 41 14 12 11 39 24 60 27 27 5 35 10 25
16 -7 5 -10 9 -5 10 4 1 12 3 17 4 6 1 13 3 16 4 3 0 -2 8 -10 17 -9 8 -16 18
-16 22 1 11 70 40 70 30 0 -6 7 -5 15 2 13 11 14 10 9 -5 -5 -13 -4 -16 5 -10
10 6 11 3 2 -14 -7 -11 -20 -21 -31 -21 -18 0 -38 -35 -26 -47 6 -7 69 32 87
54 16 19 18 55 4 65 -11 8 20 78 35 78 5 0 10 6 10 14 0 9 -7 12 -19 9 -16 -4
-22 3 -32 39 -15 56 -15 58 4 120 32 106 39 153 27 183 -8 21 -8 31 -1 33 6 2
11 29 12 60 0 32 3 52 6 45 3 -8 13 -4 29 12 14 14 23 29 20 34 -8 12 3 41 15
41 5 0 9 -7 9 -16 0 -8 -5 -12 -10 -9 -5 3 -10 1 -10 -4 0 -26 31 -6 47 31 7
14 21 28 33 30 11 2 21 6 20 11 0 4 0 18 0 32 0 19 -7 26 -37 34 -28 8 -39 7
-45 -2 -6 -9 -10 -9 -15 -1 -13 18 -74 22 -104 7 -25 -13 -33 -13 -61 1 -17 9
-37 16 -45 16 -7 0 -13 8 -13 18 -1 16 -80 62 -108 62 -6 0 -15 7 -20 15 -4 9
-19 17 -33 20 -13 2 -30 14 -38 25 -7 11 -18 20 -23 20 -20 0 -74 68 -88 110
-7 25 -22 57 -33 72 -15 23 -22 26 -38 18 -16 -9 -19 -7 -19 15 0 14 -4 25
-10 25 -5 0 -10 -18 -10 -40 0 -29 -4 -40 -15 -40 -11 0 -15 -11 -15 -37 0
-21 -7 -51 -15 -67 -8 -15 -15 -35 -15 -42 0 -9 -11 -14 -29 -14 -16 0 -36 -6
-43 -14 -8 -7 -30 -19 -51 -27 -33 -12 -52 -39 -27 -39 6 0 5 -9 -2 -22 -24
-43 -41 -58 -65 -58 -20 0 -23 -5 -23 -40 0 -36 3 -40 25 -40 20 0 25 -5 25
-27 0 -14 8 -35 18 -46 9 -11 11 -17 5 -13 -16 9 -18 -70 -3 -109 12 -31 -5
-111 -28 -134 -12 -12 -15 -12 -23 0 -7 10 -11 11 -17 2 -15 -23 -122 -17
-107 7 7 12 -27 51 -50 55 -11 2 -22 4 -25 4 -3 1 2 6 10 11 11 7 7 10 -17 10
-31 0 -33 2 -33 34 0 19 -4 38 -10 41 -5 3 -10 1 -10 -4 0 -6 -16 -11 -36 -11
-29 0 -44 8 -84 50 -38 39 -56 50 -80 50 -18 0 -33 6 -36 15 -4 8 -15 15 -25
15 -10 0 -19 -7 -19 -15 0 -11 -12 -15 -50 -15 -27 0 -50 5 -50 10 0 6 14 10
30 10 17 0 30 5 30 10 0 6 -12 10 -26 10 -29 0 -54 21 -54 44 0 19 -77 61 -82
44 -2 -6 -11 -4 -22 7 -11 11 -14 20 -7 24 20 13 -6 34 -34 28 -22 -4 -35 2
-61 29 -19 18 -34 38 -34 43 0 11 -37 81 -50 94 -4 5 -20 10 -35 12 -15 1 -32
10 -37 19 -5 9 -16 16 -23 16 -8 0 -15 9 -15 20 0 14 -7 20 -21 20 -12 0 -23
8 -26 18 -2 10 -14 22 -26 27 -12 6 -25 24 -29 43 -9 33 -25 41 -46 20 -9 -9
-12 -5 -12 20 0 32 -14 43 -24 20 -7 -18 -36 20 -29 38 4 10 -3 14 -26 14 -34
0 -41 19 -16 40 8 7 15 19 15 26 0 8 9 14 20 14 16 0 20 7 20 34 0 41 -15 86
-30 86 -5 0 -10 -10 -10 -22 -1 -22 -1 -22 -15 -4 -22 28 -33 11 -27 -44 4
-46 3 -50 -17 -50 -11 0 -21 -4 -21 -10 0 -5 -20 1 -44 15 -36 20 -61 25 -142
28 -73 3 -111 10 -145 25 -25 12 -66 23 -91 25 -25 3 -54 10 -66 16 -11 6 -32
11 -45 11 -13 0 -34 9 -47 20 -13 11 -31 20 -42 20 -10 0 -26 8 -36 18 -24 24
-48 34 -91 37 -19 1 -40 10 -46 19 -7 9 -19 16 -28 16 -9 0 -22 10 -28 23 -7
12 -31 43 -55 69 -42 45 -44 50 -44 108 0 47 4 64 20 80 11 11 23 34 27 50 3
18 14 32 27 36 11 4 29 14 38 23 36 34 48 41 91 51 24 5 56 14 71 20 15 5 37
12 49 14 56 12 142 38 153 46 29 25 151 45 259 43 140 -2 146 -3 168 -23 20
-19 89 -55 125 -65 12 -4 22 -11 22 -17 0 -5 6 -8 14 -5 19 8 181 -38 226 -64
8 -5 31 -17 50 -27 36 -19 107 -59 125 -71 45 -28 186 -43 200 -21 3 5 12 7
20 3 8 -3 23 -2 33 3 44 20 141 29 155 15 6 -6 23 -11 37 -11 29 0 73 -27 65
-40 -3 -5 2 -18 12 -29 9 -12 29 -52 43 -90 14 -38 37 -83 53 -100 15 -17 27
-36 27 -41 0 -20 32 -60 48 -60 8 0 25 -11 37 -25 20 -20 28 -23 54 -15 16 4
39 6 50 3 16 -4 23 1 31 22 9 22 15 26 35 21 14 -4 25 -2 25 3 0 15 35 23 149
31 89 6 117 12 174 39 62 30 75 32 150 29 45 -1 119 -2 165 0 80 2 82 3 82 27
0 17 6 25 18 25 20 0 60 85 67 145 9 77 17 105 28 98 6 -3 7 -1 3 6 -4 6 6 33
23 60 47 73 96 91 246 91 121 0 167 -10 283 -61 24 -11 47 -17 52 -14 5 3 11
1 15 -5 3 -5 16 -10 28 -10 27 0 110 -31 119 -44 4 -6 8 -7 8 -2 0 5 6 3 14
-3 7 -6 25 -12 39 -13 14 -1 24 -5 21 -9 -2 -3 23 -18 55 -33 68 -30 125 -92
128 -140 1 -17 5 -46 8 -64 8 -37 -7 -62 -36 -62 -11 0 -19 -5 -19 -11 0 -5 6
-7 13 -3 8 5 9 4 2 -3 -28 -28 -122 -45 -257 -46 -76 -1 -138 -5 -138 -9 0 -4
-6 -8 -14 -8 -7 0 -19 -6 -26 -14 -6 -8 -18 -12 -26 -9 -9 3 -14 -2 -14 -16 0
-12 3 -21 8 -21 8 0 72 -53 72 -61 0 -3 20 -26 44 -52 24 -26 54 -62 67 -81
16 -24 34 -37 57 -41 46 -8 72 -26 72 -47 0 -10 4 -18 8 -18 5 0 14 -12 21
-27 9 -21 9 -28 0 -34 -20 -12 9 -39 42 -39 22 0 34 8 51 34 13 19 31 37 40
40 10 2 21 12 25 22 3 10 23 34 44 55 20 20 35 40 32 43 -4 3 1 6 11 6 9 0 14
4 11 10 -3 5 1 20 9 32 11 18 12 36 5 83 -11 82 2 129 43 149 17 9 35 16 40
16 5 0 16 6 24 14 7 8 42 17 77 21 50 6 71 3 96 -10 18 -9 35 -15 37 -12 2 2
28 -4 57 -13 38 -12 59 -26 77 -53 24 -34 51 -70 96 -125 12 -15 23 -31 24
-37 8 -33 14 -37 49 -30 20 4 46 13 58 21 12 8 31 14 41 14 10 0 23 5 29 11 7
7 50 10 119 7 97 -3 113 -6 144 -28 61 -44 81 -64 100 -101 30 -58 41 -62 102
-43 29 10 69 27 88 39 19 12 62 32 95 44 32 12 97 44 143 71 45 27 102 55 125
61 75 20 147 58 159 84 9 19 8 29 -6 50 -9 14 -23 25 -30 25 -12 0 -66 70 -66
87 -1 10 -77 63 -90 63 -6 0 -10 7 -10 15 0 8 -6 15 -14 15 -7 0 -21 11 -30
25 -9 14 -23 25 -30 25 -7 0 -19 6 -26 14 -6 8 -18 12 -26 9 -8 -3 -14 -1 -14
5 0 14 -72 82 -87 82 -7 0 -13 5 -13 10 0 6 -4 10 -10 10 -10 0 -111 59 -120
70 -3 3 -21 17 -40 30 -19 13 -44 33 -55 45 -11 12 -37 30 -57 40 -21 11 -38
23 -38 27 0 5 -18 8 -40 8 -22 0 -40 4 -40 9 0 5 -16 12 -36 16 -41 7 -124 45
-124 56 0 4 -13 10 -29 14 -16 3 -40 15 -53 26 -13 11 -33 29 -45 39 -12 10
-33 26 -47 35 -14 10 -26 24 -26 31 0 8 -10 14 -25 14 -14 0 -34 8 -45 18 -11
9 -29 25 -40 34 -10 10 -43 20 -72 24 -30 3 -59 13 -66 22 -10 13 -33 17 -115
17 -60 0 -111 6 -124 13 -12 7 -35 12 -52 12 -17 0 -31 5 -31 11 0 5 -4 8 -9
5 -5 -4 -12 0 -14 6 -4 9 -6 9 -6 1 -1 -12 -41 -6 -41 7 0 5 -17 14 -37 21
-37 12 -83 37 -93 50 -6 8 -85 44 -118 54 -13 4 -40 24 -59 46 -19 21 -43 39
-53 39 -10 0 -28 12 -39 27 -15 19 -30 26 -52 25 -18 0 -39 6 -47 15 -11 10
-17 12 -20 4 -6 -17 -23 -14 -125 19 -50 16 -125 39 -164 50 -40 12 -75 26
-78 31 -4 5 -18 9 -32 9 -15 0 -34 7 -43 15 -17 15 -44 21 -140 32 -30 3 -57
9 -60 13 -3 4 -48 13 -100 19 -52 7 -120 16 -150 21 -57 9 -306 4 -350 -7 -14
-3 -29 -5 -34 -4 -5 1 -23 -5 -41 -13 -17 -8 -69 -18 -116 -22 -46 -4 -88 -10
-94 -14 -43 -32 -356 -39 -379 -9 -11 15 -93 45 -110 40 -4 -1 -13 2 -20 7
-16 13 -181 22 -448 23 -197 1 -230 -1 -260 -16 -48 -25 -59 -26 -307 -31
-173 -4 -252 -2 -355 11 -72 10 -133 20 -136 24 -3 4 -21 14 -41 22 -65 26
-135 102 -158 172 -7 20 -17 37 -22 37 -5 0 -9 5 -9 11 0 6 -11 24 -25 41 -14
16 -25 35 -25 41 0 22 -84 92 -142 120 -31 15 -85 34 -120 43 -35 8 -75 20
-89 25 -15 6 -42 12 -60 14 -19 1 -46 6 -61 10 l-28 7 0 -2818z m1280 596 c0
-5 -7 -10 -16 -10 -8 0 -12 5 -9 10 3 6 10 10 16 10 5 0 9 -4 9 -10z m290
-340 c0 -5 -4 -10 -10 -10 -5 0 -10 5 -10 10 0 6 5 10 10 10 6 0 10 -4 10 -10z"/>
<path d="M4305 10191 c-13 -5 -20 -18 -21 -37 0 -16 -4 -47 -8 -70 -7 -40 -7
-42 48 -89 31 -26 56 -56 56 -66 0 -11 8 -27 18 -37 10 -10 24 -32 31 -50 9
-22 22 -34 40 -38 36 -7 56 -20 53 -34 -1 -6 2 -9 7 -6 5 4 16 0 23 -8 16 -15
98 -26 98 -13 0 4 16 5 35 1 23 -4 35 -2 35 5 0 6 5 11 11 11 6 0 24 13 40 29
28 29 38 64 20 75 -4 3 -11 20 -15 37 -3 17 -20 44 -38 61 -29 27 -145 88
-168 88 -5 0 -28 17 -49 38 -21 21 -44 36 -49 34 -6 -2 -16 6 -22 17 -6 12
-20 21 -30 21 -11 0 -20 4 -20 9 0 9 -18 16 -60 26 -8 2 -24 0 -35 -4z"/>
<path d="M14753 8928 c-21 -7 -33 -17 -33 -29 0 -12 -7 -19 -20 -19 -11 0 -23
-6 -26 -14 -3 -7 -23 -21 -45 -31 -21 -10 -39 -22 -39 -27 0 -4 -13 -8 -29 -8
-16 0 -34 -7 -41 -15 -7 -8 -17 -15 -22 -15 -5 0 -24 -11 -42 -25 -18 -14 -38
-25 -44 -25 -7 0 -12 -7 -12 -15 0 -8 -12 -17 -27 -20 -32 -7 -98 -23 -128
-31 -11 -3 -25 -6 -32 -6 -7 -1 -10 -5 -7 -10 8 -13 -34 -25 -111 -32 -177
-17 -276 -49 -410 -131 -22 -14 -60 -35 -85 -47 -43 -21 -44 -22 -20 -29 24
-7 24 -7 3 -8 -27 -1 -31 -21 -5 -22 9 -1 34 -2 55 -3 21 -2 50 -12 66 -24 15
-11 48 -26 72 -32 24 -7 79 -26 123 -42 93 -36 123 -38 145 -10 9 12 31 27 48
33 28 9 32 15 27 35 -4 15 -2 24 5 24 6 0 11 7 11 15 0 9 6 12 15 9 11 -5 15
1 15 19 0 19 11 34 44 57 25 16 49 30 55 30 5 0 14 6 18 13 4 7 21 21 37 31
17 11 40 29 53 42 12 12 32 26 45 30 12 3 29 15 37 26 15 18 31 20 116 18 11
-1 63 -1 115 0 105 0 109 -1 230 -30 47 -12 100 -22 117 -23 18 -2 38 -8 45
-15 7 -7 18 -12 26 -12 7 0 21 -7 29 -16 13 -13 35 -15 121 -12 72 2 107 8
110 16 2 6 9 12 16 12 7 0 18 6 25 13 6 6 17 12 24 12 7 0 13 18 15 45 2 41
-1 47 -33 70 -19 14 -35 31 -35 37 0 7 -13 19 -30 28 -16 9 -30 20 -30 26 0 7
-68 44 -100 54 -12 3 -128 57 -155 71 -38 20 -254 29 -302 12z"/>
<path d="M15110 8298 c-58 -5 -100 -14 -110 -23 -9 -8 -22 -15 -28 -15 -7 0
-12 -4 -12 -8 0 -4 -17 -14 -37 -21 -37 -13 -104 -53 -131 -78 -6 -6 -21 -15
-32 -18 -11 -3 -20 -11 -20 -16 0 -5 -7 -9 -15 -9 -8 0 -31 -9 -51 -19 -28
-15 -48 -18 -87 -14 -40 5 -49 3 -45 -8 12 -36 136 -82 338 -124 36 -7 90 -25
120 -39 30 -14 61 -26 67 -26 7 0 27 -9 45 -20 18 -11 43 -20 54 -20 12 0 35
-7 50 -15 16 -8 41 -15 56 -15 14 0 39 -6 55 -14 50 -24 97 -39 143 -44 25 -2
50 -7 55 -12 6 -4 48 -20 95 -35 47 -16 94 -35 105 -42 11 -7 29 -13 41 -13
12 0 43 -9 70 -19 27 -11 83 -29 124 -42 69 -21 154 -56 190 -78 23 -14 113
-55 225 -100 55 -23 118 -52 140 -66 22 -13 68 -39 103 -56 34 -18 65 -36 68
-40 3 -5 16 -9 29 -9 13 0 27 -5 30 -10 4 -6 44 -30 90 -53 79 -40 87 -47 162
-146 96 -128 110 -149 118 -183 6 -23 4 -27 -13 -23 -26 5 -62 27 -62 38 0 5
-12 19 -27 31 -31 23 -130 114 -147 134 -52 60 -85 89 -133 115 -28 15 -166
84 -213 107 -34 16 -69 15 -127 -4 -19 -6 -23 -4 -23 13 0 12 -6 21 -12 21
-10 0 -10 2 0 9 10 6 8 10 -10 16 -12 4 -27 8 -31 9 -4 0 -11 6 -15 11 -8 12
-102 45 -126 45 -9 0 -16 5 -16 11 0 8 -12 10 -34 6 -44 -7 -84 2 -64 14 18
12 -4 26 -57 35 -22 3 -47 12 -55 19 -16 14 -35 19 -60 15 -8 -1 -4 -5 10 -10
21 -7 19 -8 -17 -9 -25 -1 -43 4 -46 12 -3 9 -7 9 -17 0 -14 -13 -43 -6 -34 8
11 18 -7 29 -26 17 -15 -10 -27 -10 -49 -1 -22 8 -31 8 -34 -1 -2 -6 -18 3
-35 21 -18 17 -42 35 -53 38 -11 4 -42 16 -67 28 -26 11 -55 22 -64 24 -10 1
-39 16 -66 33 -27 16 -57 30 -66 30 -9 0 -31 7 -47 16 -33 16 -59 13 -59 -8 0
-12 130 -90 157 -94 6 -1 27 -14 46 -28 19 -14 41 -26 50 -26 10 0 17 -4 17
-9 0 -6 8 -10 18 -10 9 1 35 -6 57 -15 22 -8 47 -15 56 -16 9 0 19 -7 23 -15
3 -8 18 -15 33 -15 14 0 36 -8 47 -19 27 -23 75 -39 108 -36 18 2 29 -4 38
-20 14 -26 56 -48 73 -39 7 4 9 3 4 -1 -11 -13 23 -45 48 -45 13 0 28 -7 35
-15 9 -11 16 -12 25 -5 9 8 17 4 29 -14 9 -14 16 -30 16 -36 0 -5 8 -10 19
-10 10 0 34 -3 52 -6 19 -3 29 -2 23 3 -20 14 -54 83 -54 108 0 35 43 35 66 0
9 -14 22 -25 29 -25 7 0 24 -16 39 -35 14 -19 54 -56 89 -82 34 -26 68 -53 75
-60 7 -7 17 -13 22 -13 5 0 39 -29 75 -65 61 -59 105 -82 105 -54 0 5 5 7 11
4 6 -4 8 -9 5 -13 -9 -8 27 -31 50 -32 22 0 87 -44 79 -52 -3 -3 18 -17 47
-32 70 -34 84 -44 132 -88 22 -21 48 -38 59 -38 10 0 16 -4 13 -8 -11 -18 14
-32 112 -66 18 -6 35 -19 38 -29 3 -10 26 -39 50 -65 24 -25 44 -52 44 -59 0
-7 5 -13 10 -13 6 0 10 15 10 33 0 19 3 37 6 40 9 9 50 -45 46 -60 -2 -7 4
-13 13 -13 8 0 15 -6 15 -14 0 -7 14 -16 30 -19 21 -5 30 -12 30 -25 0 -17 20
-41 67 -82 10 -9 25 -25 33 -37 20 -30 68 -41 76 -18 7 18 -14 95 -27 95 -4 0
-12 14 -18 32 -10 29 -55 96 -91 137 -30 34 -99 127 -112 151 -17 32 -44 74
-79 127 -16 23 -29 47 -29 55 0 8 -13 22 -30 31 -16 10 -30 22 -30 27 0 20 20
18 77 -9 44 -21 63 -37 72 -59 7 -17 31 -42 53 -57 51 -34 154 -138 186 -190
48 -76 77 -120 82 -125 3 -3 20 -39 38 -80 18 -41 37 -83 43 -92 5 -10 9 -23
9 -29 0 -14 25 -39 39 -39 6 0 19 4 29 9 9 5 25 12 35 15 31 10 19 48 -31 101
-54 55 -85 112 -57 101 9 -3 21 -6 26 -6 17 0 94 -116 108 -165 17 -60 17 -84
-2 -200 -8 -50 -15 -127 -16 -173 -2 -76 0 -82 18 -82 15 0 21 9 26 38 3 20 9
50 13 67 4 16 4 67 -1 113 -9 90 -2 114 34 105 26 -7 57 -52 81 -120 23 -65
45 -111 63 -133 8 -8 22 -47 33 -86 11 -40 25 -81 31 -92 31 -58 119 -379 163
-597 5 -27 18 -75 28 -105 10 -30 29 -91 43 -135 24 -74 44 -129 67 -180 5
-11 14 -37 20 -57 6 -21 26 -49 46 -64 19 -15 34 -36 34 -46 0 -21 36 -76 63
-96 14 -11 17 -26 16 -70 -2 -74 12 -158 35 -202 10 -19 22 -51 27 -70 21 -86
40 -190 45 -253 5 -61 8 -69 30 -77 20 -8 23 -13 15 -28 -6 -11 -6 -24 -1 -32
11 -18 20 -10 26 26 3 16 9 31 13 34 5 3 4 28 -2 57 -10 46 -9 55 8 73 27 30
54 26 61 -10 4 -16 13 -35 20 -41 8 -6 14 -21 14 -32 0 -11 9 -50 19 -86 11
-36 24 -93 31 -126 6 -33 17 -76 25 -95 18 -43 55 -253 84 -480 5 -36 14 -99
21 -140 6 -41 16 -102 21 -135 5 -33 14 -136 19 -230 6 -93 17 -215 24 -270
13 -92 14 -49 15 508 1 380 -3 615 -9 627 -5 10 -16 53 -24 96 -25 131 -56
263 -83 349 -8 28 -24 79 -33 115 -10 36 -28 88 -40 115 -27 60 -73 195 -141
410 -28 88 -60 176 -70 195 -10 19 -25 53 -35 75 -9 22 -36 81 -59 130 -23 50
-53 119 -65 155 -13 36 -26 70 -30 75 -4 6 -15 33 -25 60 -10 28 -40 97 -68
155 -27 58 -57 123 -67 145 -10 22 -43 95 -74 163 -31 68 -56 128 -56 134 0 5
-36 84 -81 175 -44 91 -78 167 -75 170 8 9 119 -105 189 -195 34 -44 85 -107
112 -140 28 -33 67 -84 88 -114 20 -29 55 -73 77 -98 22 -25 54 -67 71 -95 53
-87 99 -167 132 -230 17 -33 34 -62 37 -65 3 -3 12 -25 20 -50 7 -25 40 -85
72 -134 32 -49 58 -95 58 -101 0 -7 18 -45 40 -85 22 -40 40 -78 40 -84 -1
-16 84 -184 93 -185 4 -1 7 301 7 669 0 369 -3 670 -6 670 -3 0 -17 -9 -31
-20 -19 -15 -41 -20 -84 -20 -35 0 -59 4 -59 11 0 5 -4 8 -9 5 -21 -13 -62 17
-106 78 -82 115 -96 277 -34 402 24 48 62 94 78 94 5 0 14 7 21 15 7 8 21 15
31 15 11 0 19 4 19 8 0 12 121 48 168 51 9 1 12 41 12 165 l0 164 -29 10 c-16
6 -32 8 -35 5 -3 -4 -6 -1 -6 5 0 6 -9 9 -20 7 -11 -2 -23 2 -27 9 -5 8 -24
23 -43 35 -33 20 -34 21 -10 22 17 1 19 3 8 6 -12 3 -18 14 -18 33 0 19 6 30
18 33 15 4 15 5 -2 6 -17 1 -16 4 8 26 14 13 26 33 26 45 0 12 10 25 25 32 36
16 32 72 -7 112 -15 17 -28 35 -28 41 0 22 -46 62 -78 68 -17 4 -62 21 -99 38
-37 17 -72 32 -78 34 -5 1 -17 5 -25 8 -20 8 -120 27 -145 27 -371 9 -382 11
-463 89 -23 23 -46 41 -51 41 -5 0 -18 16 -30 35 -11 19 -32 40 -46 45 -15 6
-23 14 -20 20 3 5 1 10 -4 10 -6 0 -11 7 -11 15 0 8 -4 14 -9 13 -11 -4 -80
74 -81 91 0 9 -6 11 -17 6 -10 -4 -31 -12 -48 -18 -16 -5 -49 -29 -72 -53 -23
-23 -50 -45 -61 -48 -11 -4 -22 -13 -25 -20 -3 -8 -30 -17 -67 -21 -58 -7 -63
-5 -110 26 -49 34 -70 68 -70 115 0 13 -3 24 -7 24 -5 0 -6 29 -5 65 2 39 0
65 -6 65 -6 0 -12 -6 -14 -12 -3 -8 -14 -3 -30 15 -14 15 -30 27 -37 27 -6 0
-11 5 -11 11 0 6 -23 9 -57 8 -32 -1 -146 -1 -253 0 -158 1 -213 -3 -290 -18
-52 -11 -137 -24 -188 -28 -77 -7 -98 -5 -125 8 -17 9 -75 25 -127 34 -52 10
-106 24 -120 30 -14 7 -61 18 -105 25 -79 12 -153 36 -223 71 -20 11 -44 19
-54 19 -41 0 -416 78 -433 90 -5 4 -26 11 -45 15 -19 4 -44 13 -55 19 -32 20
-73 23 -175 14z m730 -868 c0 -5 -9 -10 -20 -10 -11 0 -20 5 -20 10 0 6 9 10
20 10 11 0 20 -4 20 -10z m225 -60 c3 -6 -4 -10 -17 -10 -18 0 -20 2 -8 10 19
12 18 12 25 0z m425 -155 c-10 -13 -9 -15 11 -15 34 -1 59 -23 59 -54 0 -33
-10 -33 -41 0 -13 14 -37 32 -54 39 -20 9 -24 14 -12 14 10 1 16 5 13 10 -4 5
0 12 6 14 24 10 30 7 18 -8z m697 -511 c-10 -10 -37 16 -37 34 0 13 4 12 22
-5 12 -13 19 -25 15 -29z m58 -67 c0 -26 -20 -25 -23 2 -3 16 1 22 10 19 7 -3
13 -12 13 -21z"/>
<path d="M17955 5738 c3 -70 11 -109 30 -158 52 -129 71 -227 85 -440 14 -216
20 -252 41 -282 10 -15 19 -34 19 -43 0 -8 4 -15 10 -15 9 0 6 196 -7 320 -3
36 -7 94 -8 130 -2 92 -24 224 -47 284 -11 28 -30 85 -42 126 -24 80 -64 170
-77 170 -5 0 -6 -42 -4 -92z"/>
<path d="M15676 4962 c3 -30 7 -66 9 -80 4 -37 17 -96 54 -237 52 -199 88
-309 191 -595 29 -80 58 -165 65 -190 7 -25 25 -79 39 -120 14 -41 36 -115 50
-165 14 -49 36 -130 49 -180 133 -480 175 -658 196 -825 6 -44 15 -87 20 -97
8 -16 80 -296 101 -393 4 -19 12 -46 18 -60 15 -33 59 -221 67 -287 4 -29 11
-53 15 -53 4 0 6 -9 3 -20 -3 -10 4 -32 16 -49 15 -20 20 -38 16 -54 -4 -16
-1 -30 10 -41 9 -9 20 -40 24 -69 7 -51 47 -147 62 -147 4 0 11 -15 14 -33 4
-17 11 -36 15 -42 20 -26 60 -239 66 -350 3 -66 13 -158 21 -205 8 -47 18
-119 23 -160 18 -156 56 -437 66 -487 4 -22 9 -23 94 -23 l89 0 -5 38 c-3 20
-12 77 -19 127 -8 50 -17 122 -20 160 -4 39 -13 108 -20 155 -8 47 -28 209
-45 360 -34 307 -40 333 -130 509 -48 94 -62 134 -75 210 -9 52 -20 102 -25
110 -8 16 -43 119 -74 221 -26 85 -77 210 -86 210 -4 0 -20 26 -36 58 -23 47
-29 76 -34 162 -8 121 -62 324 -97 362 -28 31 -49 103 -68 230 -8 59 -31 161
-50 225 -77 264 -106 359 -115 378 -5 11 -22 63 -39 115 -16 52 -64 179 -105
282 -71 176 -100 259 -141 403 -9 33 -28 98 -42 145 -13 47 -29 101 -33 120
-37 143 -105 366 -121 397 l-20 38 7 -53z"/>
<path d="M423 2646 c3 -8 -1 -20 -9 -26 -11 -10 -14 -9 -14 4 0 9 -4 16 -10
16 -5 0 -10 -9 -10 -20 0 -16 7 -20 30 -20 l30 0 -21 -21 c-16 -16 -20 -32
-19 -67 4 -69 2 -75 -16 -68 -18 7 -84 -13 -84 -25 0 -4 6 -9 13 -12 9 -3 7
-9 -5 -24 -17 -18 -16 -20 12 -44 22 -18 29 -32 30 -61 0 -29 4 -38 17 -38 26
0 112 -44 113 -58 0 -7 11 -25 25 -40 22 -23 23 -28 10 -41 -8 -8 -40 -16 -71
-19 -59 -5 -87 -22 -113 -70 -9 -18 -20 -22 -54 -20 l-42 1 43 4 c34 3 42 8
42 24 0 16 -7 19 -40 19 -33 0 -40 3 -40 20 0 11 -4 20 -10 20 -5 0 -10 -18
-10 -39 0 -41 -20 -71 -46 -71 -8 0 -14 -3 -14 -8 0 -4 -17 -25 -38 -47 -21
-22 -42 -49 -46 -60 l-8 -20 -8 20 c-7 17 -9 17 -9 3 -1 -12 -9 -18 -26 -18
l-25 0 0 -920 0 -920 180 0 c194 0 191 -1 171 54 -8 21 -3 35 34 93 33 50 40
69 30 71 -19 4 -20 22 -2 22 22 0 64 53 71 90 15 75 25 218 19 276 -5 51 -1
69 20 115 34 74 55 145 63 215 6 61 50 231 63 249 9 12 61 178 86 277 10 37
23 69 29 71 7 3 18 24 26 48 7 24 19 51 25 59 22 30 70 193 66 228 -1 13 3 22
11 22 10 0 9 3 -2 10 -9 5 -13 22 -12 46 l3 36 -36 -6 c-25 -5 -42 -2 -57 9
-19 12 -19 15 -5 15 25 0 21 18 -12 51 -40 39 -51 37 -51 -11 l0 -40 -42 0
c-43 0 -43 0 -43 37 0 31 -4 38 -25 43 l-25 6 25 7 c14 3 27 2 28 -3 2 -6 21
-10 43 -10 29 0 39 4 39 16 0 11 5 14 17 10 25 -10 33 11 33 87 0 38 4 67 10
67 25 0 55 46 60 96 5 47 4 51 -14 46 -20 -5 -20 -6 1 46 3 6 0 12 -6 12 -23
0 -50 36 -62 85 -14 57 -33 77 -69 71 -39 -7 -223 19 -228 32 -2 7 -13 12 -24
12 -13 0 -18 -5 -15 -14z"/>
<path d="M19206 2164 c-10 -26 -7 -134 4 -134 6 0 10 32 10 75 0 76 -3 88 -14
59z"/>
<path d="M858 2083 c7 -3 16 -2 19 1 4 3 -2 6 -13 5 -11 0 -14 -3 -6 -6z"/>
<path d="M12315 1580 c-4 -11 -7 -49 -9 -85 -1 -36 -7 -70 -14 -77 -6 -6 -27
-11 -47 -10 -32 1 -36 -1 -35 -21 4 -49 -2 -66 -38 -108 -57 -65 -68 -88 -49
-107 14 -14 18 -13 41 1 26 18 53 21 80 11 23 -9 20 -29 -9 -48 -40 -26 -57
-69 -49 -127 11 -84 53 -103 105 -48 l29 31 15 -36 c8 -19 15 -60 15 -91 0
-30 5 -55 10 -55 6 0 10 7 10 16 0 15 117 133 133 134 5 0 17 -10 27 -22 15
-19 22 -21 37 -12 34 21 39 59 15 103 -39 69 -24 111 27 79 14 -9 26 -8 50 2
27 11 31 17 31 50 0 35 -3 39 -40 54 -22 9 -40 23 -40 31 0 14 5 17 40 19 18
1 31 62 19 93 -12 31 -56 48 -87 33 -18 -8 -28 -8 -38 1 -16 13 -11 44 17 103
21 44 24 72 9 81 -20 12 -47 -6 -69 -45 -16 -30 -29 -40 -47 -40 -17 0 -24 5
-24 20 0 10 -14 35 -31 55 -35 40 -74 47 -84 15z m172 -267 c-3 -3 -11 -2 -17
2 -8 5 -7 11 2 22 12 15 13 14 16 -1 2 -10 1 -20 -1 -23z m-12 -133 c9 -30 -4
-60 -26 -60 -24 0 -33 21 -25 55 8 31 42 34 51 5z m-115 -52 c0 -39 -13 -63
-29 -54 -12 8 -15 68 -4 79 17 18 33 5 33 -25z"/>
<path d="M12351 784 c0 -11 3 -14 6 -6 3 7 2 16 -1 19 -3 4 -6 -2 -5 -13z"/>
<path d="M19200 600 c0 -5 5 -10 10 -10 6 0 10 5 10 10 0 6 -4 10 -10 10 -5 0
-10 -4 -10 -10z"/>
<path d="M12353 555 c0 -22 2 -30 4 -17 2 12 2 30 0 40 -3 9 -5 -1 -4 -23z"/>
</g>
</svg>
